solid model
  facet normal 0.0784584 0.996917 -0
    outer loop
      vertex -0.406729 -2.56799 0
      vertex -0.406729 -2.56799 3.9
      vertex 0 -2.6 0
    endloop
  endfacet
  facet normal 0.0784584 0.996917 -0
    outer loop
      vertex -0.406729 -2.56799 3.9
      vertex 0 -2.6 3.9
      vertex 0 -2.6 0
    endloop
  endfacet
  facet normal 0.0784584 -0.996917 0
    outer loop
      vertex -0.406729 2.56799 0
      vertex 0 2.6 0
      vertex 0 2.6 3.9
    endloop
  endfacet
  facet normal 0.0784584 -0.996917 0
    outer loop
      vertex -0.406729 2.56799 0
      vertex 0 2.6 3.9
      vertex -0.406729 2.56799 3.9
    endloop
  endfacet
  facet normal -0 0 -1
    outer loop
      vertex -0.522642 -4.97261 0
      vertex -0.406729 -2.56799 0
      vertex 0 -2.6 0
    endloop
  endfacet
  facet normal 0 0 -1
    outer loop
      vertex -0.522642 -4.97261 0
      vertex 0 -2.6 0
      vertex 0 -5 0
    endloop
  endfacet
  facet normal -0.052335 -0.99863 -0
    outer loop
      vertex -0.522642 -4.97261 0
      vertex 0 -5 0
      vertex 0 -5 3.9
    endloop
  endfacet
  facet normal -0.052335 -0.99863 0
    outer loop
      vertex -0.522642 -4.97261 0
      vertex 0 -5 3.9
      vertex -0.522642 -4.97261 3.9
    endloop
  endfacet
  facet normal 0 0 1
    outer loop
      vertex -0.522642 -4.97261 3.9
      vertex 0 -2.6 3.9
      vertex -0.406729 -2.56799 3.9
    endloop
  endfacet
  facet normal 0 0 1
    outer loop
      vertex -0.522642 -4.97261 3.9
      vertex 0 -5 3.9
      vertex 0 -2.6 3.9
    endloop
  endfacet
  facet normal -0.052335 0.99863 0
    outer loop
      vertex -0.522642 4.97261 0
      vertex -0.522642 4.97261 3.9
      vertex 0 5 0
    endloop
  endfacet
  facet normal 0 0 -1
    outer loop
      vertex -0.522642 4.97261 0
      vertex 0 2.6 0
      vertex -0.406729 2.56799 0
    endloop
  endfacet
  facet normal 0 0 -1
    outer loop
      vertex -0.522642 4.97261 0
      vertex 0 5 0
      vertex 0 2.6 0
    endloop
  endfacet
  facet normal 0 0 1
    outer loop
      vertex -0.522642 4.97261 3.9
      vertex -0.406729 2.56799 3.9
      vertex 0 2.6 3.9
    endloop
  endfacet
  facet normal -0 0 1
    outer loop
      vertex -0.522642 4.97261 3.9
      vertex 0 2.6 3.9
      vertex 0 5 3.9
    endloop
  endfacet
  facet normal -0.052335 0.99863 0
    outer loop
      vertex -0.522642 4.97261 3.9
      vertex 0 5 3.9
      vertex 0 5 0
    endloop
  endfacet
  facet normal 0.233439 0.972372 0
    outer loop
      vertex -0.803444 -2.47275 0
      vertex -0.803444 -2.47275 3.9
      vertex -0.406729 -2.56799 0
    endloop
  endfacet
  facet normal 0.233439 0.972372 -0
    outer loop
      vertex -0.803444 -2.47275 3.9
      vertex -0.406729 -2.56799 3.9
      vertex -0.406729 -2.56799 0
    endloop
  endfacet
  facet normal 0.233439 -0.972372 0
    outer loop
      vertex -0.803444 2.47275 0
      vertex -0.406729 2.56799 0
      vertex -0.406729 2.56799 3.9
    endloop
  endfacet
  facet normal 0.233439 -0.972372 0
    outer loop
      vertex -0.803444 2.47275 0
      vertex -0.406729 2.56799 3.9
      vertex -0.803444 2.47275 3.9
    endloop
  endfacet
  facet normal 0 0 -1
    outer loop
      vertex -1.03956 -4.89074 0
      vertex -0.406729 -2.56799 0
      vertex -0.522642 -4.97261 0
    endloop
  endfacet
  facet normal -0.156431 -0.987689 -0
    outer loop
      vertex -1.03956 -4.89074 0
      vertex -0.522642 -4.97261 0
      vertex -0.522642 -4.97261 3.9
    endloop
  endfacet
  facet normal -0.156431 -0.987689 0
    outer loop
      vertex -1.03956 -4.89074 0
      vertex -0.522642 -4.97261 3.9
      vertex -1.03956 -4.89074 3.9
    endloop
  endfacet
  facet normal -0 0 -1
    outer loop
      vertex -1.03956 -4.89074 0
      vertex -0.803444 -2.47275 0
      vertex -0.406729 -2.56799 0
    endloop
  endfacet
  facet normal 0 0 1
    outer loop
      vertex -1.03956 -4.89074 3.9
      vertex -0.406729 -2.56799 3.9
      vertex -0.803444 -2.47275 3.9
    endloop
  endfacet
  facet normal 0 0 1
    outer loop
      vertex -1.03956 -4.89074 3.9
      vertex -0.522642 -4.97261 3.9
      vertex -0.406729 -2.56799 3.9
    endloop
  endfacet
  facet normal 0 0 -1
    outer loop
      vertex -1.03956 4.89074 0
      vertex -0.406729 2.56799 0
      vertex -0.803444 2.47275 0
    endloop
  endfacet
  facet normal 0 0 -1
    outer loop
      vertex -1.03956 4.89074 0
      vertex -0.522642 4.97261 0
      vertex -0.406729 2.56799 0
    endloop
  endfacet
  facet normal -0.156431 0.987689 0
    outer loop
      vertex -1.03956 4.89074 0
      vertex -1.03956 4.89074 3.9
      vertex -0.522642 4.97261 0
    endloop
  endfacet
  facet normal -0 0 1
    outer loop
      vertex -1.03956 4.89074 3.9
      vertex -0.406729 2.56799 3.9
      vertex -0.522642 4.97261 3.9
    endloop
  endfacet
  facet normal -0.156431 0.987689 0
    outer loop
      vertex -1.03956 4.89074 3.9
      vertex -0.522642 4.97261 3.9
      vertex -0.522642 4.97261 0
    endloop
  endfacet
  facet normal 0 0 1
    outer loop
      vertex -1.03956 4.89074 3.9
      vertex -0.803444 2.47275 3.9
      vertex -0.406729 2.56799 3.9
    endloop
  endfacet
  facet normal 0.382679 0.923881 0
    outer loop
      vertex -1.18038 -2.31662 0
      vertex -1.18038 -2.31662 3.9
      vertex -0.803444 -2.47275 0
    endloop
  endfacet
  facet normal 0.382679 0.923881 -0
    outer loop
      vertex -1.18038 -2.31662 3.9
      vertex -0.803444 -2.47275 3.9
      vertex -0.803444 -2.47275 0
    endloop
  endfacet
  facet normal 0.382679 -0.923881 0
    outer loop
      vertex -1.18038 2.31662 0
      vertex -0.803444 2.47275 0
      vertex -0.803444 2.47275 3.9
    endloop
  endfacet
  facet normal 0.382679 -0.923881 0
    outer loop
      vertex -1.18038 2.31662 0
      vertex -0.803444 2.47275 3.9
      vertex -1.18038 2.31662 3.9
    endloop
  endfacet
  facet normal 0.522518 0.852628 0
    outer loop
      vertex -1.52824 -2.10344 0
      vertex -1.52824 -2.10344 3.9
      vertex -1.18038 -2.31662 0
    endloop
  endfacet
  facet normal 0.522518 0.852628 -0
    outer loop
      vertex -1.52824 -2.10344 3.9
      vertex -1.18038 -2.31662 3.9
      vertex -1.18038 -2.31662 0
    endloop
  endfacet
  facet normal 0.522518 -0.852628 0
    outer loop
      vertex -1.52824 2.10344 0
      vertex -1.18038 2.31662 0
      vertex -1.18038 2.31662 3.9
    endloop
  endfacet
  facet normal 0.522518 -0.852628 0
    outer loop
      vertex -1.52824 2.10344 0
      vertex -1.18038 2.31662 3.9
      vertex -1.52824 2.10344 3.9
    endloop
  endfacet
  facet normal 0 0 -1
    outer loop
      vertex -1.54508 -4.75528 0
      vertex -0.803444 -2.47275 0
      vertex -1.03956 -4.89074 0
    endloop
  endfacet
  facet normal -0.25883 -0.965923 -0
    outer loop
      vertex -1.54508 -4.75528 0
      vertex -1.03956 -4.89074 0
      vertex -1.03956 -4.89074 3.9
    endloop
  endfacet
  facet normal -0.25883 -0.965923 0
    outer loop
      vertex -1.54508 -4.75528 0
      vertex -1.03956 -4.89074 3.9
      vertex -1.54508 -4.75528 3.9
    endloop
  endfacet
  facet normal 0 0 1
    outer loop
      vertex -1.54508 -4.75528 3.9
      vertex -1.03956 -4.89074 3.9
      vertex -0.803444 -2.47275 3.9
    endloop
  endfacet
  facet normal 0 0 -1
    outer loop
      vertex -1.54508 4.75528 0
      vertex -1.03956 4.89074 0
      vertex -0.803444 2.47275 0
    endloop
  endfacet
  facet normal -0.25883 0.965923 0
    outer loop
      vertex -1.54508 4.75528 0
      vertex -1.54508 4.75528 3.9
      vertex -1.03956 4.89074 0
    endloop
  endfacet
  facet normal -0 0 1
    outer loop
      vertex -1.54508 4.75528 3.9
      vertex -0.803444 2.47275 3.9
      vertex -1.03956 4.89074 3.9
    endloop
  endfacet
  facet normal -0.25883 0.965923 0
    outer loop
      vertex -1.54508 4.75528 3.9
      vertex -1.03956 4.89074 3.9
      vertex -1.03956 4.89074 0
    endloop
  endfacet
  facet normal 0.649434 0.760418 0
    outer loop
      vertex -1.83848 -1.83848 0
      vertex -1.83848 -1.83848 3.9
      vertex -1.52824 -2.10344 0
    endloop
  endfacet
  facet normal 0.649434 0.760418 -0
    outer loop
      vertex -1.83848 -1.83848 3.9
      vertex -1.52824 -2.10344 3.9
      vertex -1.52824 -2.10344 0
    endloop
  endfacet
  facet normal 0.649434 -0.760418 0
    outer loop
      vertex -1.83848 1.83848 0
      vertex -1.52824 2.10344 0
      vertex -1.52824 2.10344 3.9
    endloop
  endfacet
  facet normal 0.649434 -0.760418 0
    outer loop
      vertex -1.83848 1.83848 0
      vertex -1.52824 2.10344 3.9
      vertex -1.83848 1.83848 3.9
    endloop
  endfacet
  facet normal 0 0 -1
    outer loop
      vertex -2.03368 -4.56773 0
      vertex -0.803444 -2.47275 0
      vertex -1.54508 -4.75528 0
    endloop
  endfacet
  facet normal -0 0 -1
    outer loop
      vertex -2.03368 -4.56773 0
      vertex -1.18038 -2.31662 0
      vertex -0.803444 -2.47275 0
    endloop
  endfacet
  facet normal -0.358358 -0.933584 -0
    outer loop
      vertex -2.03368 -4.56773 0
      vertex -1.54508 -4.75528 0
      vertex -1.54508 -4.75528 3.9
    endloop
  endfacet
  facet normal -0.358358 -0.933584 0
    outer loop
      vertex -2.03368 -4.56773 0
      vertex -1.54508 -4.75528 3.9
      vertex -2.03368 -4.56773 3.9
    endloop
  endfacet
  facet normal 0 0 1
    outer loop
      vertex -2.03368 -4.56773 3.9
      vertex -0.803444 -2.47275 3.9
      vertex -1.18038 -2.31662 3.9
    endloop
  endfacet
  facet normal 0 0 1
    outer loop
      vertex -2.03368 -4.56773 3.9
      vertex -1.54508 -4.75528 3.9
      vertex -0.803444 -2.47275 3.9
    endloop
  endfacet
  facet normal 0 0 -1
    outer loop
      vertex -2.03368 4.56773 0
      vertex -0.803444 2.47275 0
      vertex -1.18038 2.31662 0
    endloop
  endfacet
  facet normal 0 0 -1
    outer loop
      vertex -2.03368 4.56773 0
      vertex -1.54508 4.75528 0
      vertex -0.803444 2.47275 0
    endloop
  endfacet
  facet normal -0.358358 0.933584 0
    outer loop
      vertex -2.03368 4.56773 0
      vertex -2.03368 4.56773 3.9
      vertex -1.54508 4.75528 0
    endloop
  endfacet
  facet normal -0 0 1
    outer loop
      vertex -2.03368 4.56773 3.9
      vertex -0.803444 2.47275 3.9
      vertex -1.54508 4.75528 3.9
    endloop
  endfacet
  facet normal 0 0 1
    outer loop
      vertex -2.03368 4.56773 3.9
      vertex -1.18038 2.31662 3.9
      vertex -0.803444 2.47275 3.9
    endloop
  endfacet
  facet normal -0.358358 0.933584 0
    outer loop
      vertex -2.03368 4.56773 3.9
      vertex -1.54508 4.75528 3.9
      vertex -1.54508 4.75528 0
    endloop
  endfacet
  facet normal 0.760418 0.649434 0
    outer loop
      vertex -2.10344 -1.52824 0
      vertex -1.83848 -1.83848 3.9
      vertex -1.83848 -1.83848 0
    endloop
  endfacet
  facet normal 0.760418 0.649434 0
    outer loop
      vertex -2.10344 -1.52824 0
      vertex -2.10344 -1.52824 3.9
      vertex -1.83848 -1.83848 3.9
    endloop
  endfacet
  facet normal 0.760418 -0.649434 0
    outer loop
      vertex -2.10344 1.52824 0
      vertex -1.83848 1.83848 0
      vertex -2.10344 1.52824 3.9
    endloop
  endfacet
  facet normal 0.760418 -0.649434 0
    outer loop
      vertex -2.10344 1.52824 3.9
      vertex -1.83848 1.83848 0
      vertex -1.83848 1.83848 3.9
    endloop
  endfacet
  facet normal 0.852628 0.522518 0
    outer loop
      vertex -2.31662 -1.18038 0
      vertex -2.10344 -1.52824 3.9
      vertex -2.10344 -1.52824 0
    endloop
  endfacet
  facet normal 0.852628 0.522518 0
    outer loop
      vertex -2.31662 -1.18038 0
      vertex -2.31662 -1.18038 3.9
      vertex -2.10344 -1.52824 3.9
    endloop
  endfacet
  facet normal 0.852628 -0.522518 0
    outer loop
      vertex -2.31662 1.18038 0
      vertex -2.10344 1.52824 0
      vertex -2.31662 1.18038 3.9
    endloop
  endfacet
  facet normal 0.852628 -0.522518 0
    outer loop
      vertex -2.31662 1.18038 3.9
      vertex -2.10344 1.52824 0
      vertex -2.10344 1.52824 3.9
    endloop
  endfacet
  facet normal 0.923881 0.382679 0
    outer loop
      vertex -2.47275 -0.803444 0
      vertex -2.31662 -1.18038 3.9
      vertex -2.31662 -1.18038 0
    endloop
  endfacet
  facet normal 0.923881 0.382679 0
    outer loop
      vertex -2.47275 -0.803444 0
      vertex -2.47275 -0.803444 3.9
      vertex -2.31662 -1.18038 3.9
    endloop
  endfacet
  facet normal 0.923881 -0.382679 0
    outer loop
      vertex -2.47275 0.803444 0
      vertex -2.31662 1.18038 0
      vertex -2.47275 0.803444 3.9
    endloop
  endfacet
  facet normal 0.923881 -0.382679 0
    outer loop
      vertex -2.47275 0.803444 3.9
      vertex -2.31662 1.18038 0
      vertex -2.31662 1.18038 3.9
    endloop
  endfacet
  facet normal 0 0 -1
    outer loop
      vertex -2.5 -4.33013 0
      vertex -1.18038 -2.31662 0
      vertex -2.03368 -4.56773 0
    endloop
  endfacet
  facet normal -0 0 -1
    outer loop
      vertex -2.5 -4.33013 0
      vertex -1.52824 -2.10344 0
      vertex -1.18038 -2.31662 0
    endloop
  endfacet
  facet normal -0.453988 -0.891008 -0
    outer loop
      vertex -2.5 -4.33013 0
      vertex -2.03368 -4.56773 0
      vertex -2.03368 -4.56773 3.9
    endloop
  endfacet
  facet normal -0.453988 -0.891008 0
    outer loop
      vertex -2.5 -4.33013 0
      vertex -2.03368 -4.56773 3.9
      vertex -2.5 -4.33013 3.9
    endloop
  endfacet
  facet normal 0 0 1
    outer loop
      vertex -2.5 -4.33013 3.9
      vertex -1.18038 -2.31662 3.9
      vertex -1.52824 -2.10344 3.9
    endloop
  endfacet
  facet normal 0 0 1
    outer loop
      vertex -2.5 -4.33013 3.9
      vertex -2.03368 -4.56773 3.9
      vertex -1.18038 -2.31662 3.9
    endloop
  endfacet
  facet normal 0 0 -1
    outer loop
      vertex -2.5 4.33013 0
      vertex -1.18038 2.31662 0
      vertex -1.52824 2.10344 0
    endloop
  endfacet
  facet normal 0 0 -1
    outer loop
      vertex -2.5 4.33013 0
      vertex -2.03368 4.56773 0
      vertex -1.18038 2.31662 0
    endloop
  endfacet
  facet normal -0.453988 0.891008 0
    outer loop
      vertex -2.5 4.33013 0
      vertex -2.5 4.33013 3.9
      vertex -2.03368 4.56773 0
    endloop
  endfacet
  facet normal -0 0 1
    outer loop
      vertex -2.5 4.33013 3.9
      vertex -1.18038 2.31662 3.9
      vertex -2.03368 4.56773 3.9
    endloop
  endfacet
  facet normal 0 0 1
    outer loop
      vertex -2.5 4.33013 3.9
      vertex -1.52824 2.10344 3.9
      vertex -1.18038 2.31662 3.9
    endloop
  endfacet
  facet normal -0.453988 0.891008 0
    outer loop
      vertex -2.5 4.33013 3.9
      vertex -2.03368 4.56773 3.9
      vertex -2.03368 4.56773 0
    endloop
  endfacet
  facet normal 0.972372 0.233439 0
    outer loop
      vertex -2.56799 -0.406729 0
      vertex -2.47275 -0.803444 3.9
      vertex -2.47275 -0.803444 0
    endloop
  endfacet
  facet normal 0.972372 0.233439 0
    outer loop
      vertex -2.56799 -0.406729 0
      vertex -2.56799 -0.406729 3.9
      vertex -2.47275 -0.803444 3.9
    endloop
  endfacet
  facet normal 0.972372 -0.233439 0
    outer loop
      vertex -2.56799 0.406729 0
      vertex -2.47275 0.803444 0
      vertex -2.56799 0.406729 3.9
    endloop
  endfacet
  facet normal 0.972372 -0.233439 0
    outer loop
      vertex -2.56799 0.406729 3.9
      vertex -2.47275 0.803444 0
      vertex -2.47275 0.803444 3.9
    endloop
  endfacet
  facet normal 0.996917 0.0784584 0
    outer loop
      vertex -2.6 0 0
      vertex -2.56799 -0.406729 3.9
      vertex -2.56799 -0.406729 0
    endloop
  endfacet
  facet normal 0.996917 -0.0784584 0
    outer loop
      vertex -2.6 0 0
      vertex -2.56799 0.406729 0
      vertex -2.6 0 3.9
    endloop
  endfacet
  facet normal 0.996917 0.0784584 0
    outer loop
      vertex -2.6 0 0
      vertex -2.6 0 3.9
      vertex -2.56799 -0.406729 3.9
    endloop
  endfacet
  facet normal 0.996917 -0.0784584 0
    outer loop
      vertex -2.6 0 3.9
      vertex -2.56799 0.406729 0
      vertex -2.56799 0.406729 3.9
    endloop
  endfacet
  facet normal 0 0 -1
    outer loop
      vertex -2.93893 -4.04508 0
      vertex -1.52824 -2.10344 0
      vertex -2.5 -4.33013 0
    endloop
  endfacet
  facet normal -0.544646 -0.838666 -0
    outer loop
      vertex -2.93893 -4.04508 0
      vertex -2.5 -4.33013 0
      vertex -2.5 -4.33013 3.9
    endloop
  endfacet
  facet normal -0.544646 -0.838666 0
    outer loop
      vertex -2.93893 -4.04508 0
      vertex -2.5 -4.33013 3.9
      vertex -2.93893 -4.04508 3.9
    endloop
  endfacet
  facet normal 0 0 1
    outer loop
      vertex -2.93893 -4.04508 3.9
      vertex -2.5 -4.33013 3.9
      vertex -1.52824 -2.10344 3.9
    endloop
  endfacet
  facet normal 0 0 -1
    outer loop
      vertex -2.93893 4.04508 0
      vertex -2.5 4.33013 0
      vertex -1.52824 2.10344 0
    endloop
  endfacet
  facet normal -0.544646 0.838666 0
    outer loop
      vertex -2.93893 4.04508 0
      vertex -2.93893 4.04508 3.9
      vertex -2.5 4.33013 0
    endloop
  endfacet
  facet normal -0 0 1
    outer loop
      vertex -2.93893 4.04508 3.9
      vertex -1.52824 2.10344 3.9
      vertex -2.5 4.33013 3.9
    endloop
  endfacet
  facet normal -0.544646 0.838666 0
    outer loop
      vertex -2.93893 4.04508 3.9
      vertex -2.5 4.33013 3.9
      vertex -2.5 4.33013 0
    endloop
  endfacet
  facet normal 0 0 -1
    outer loop
      vertex -3.34565 -3.71572 0
      vertex -1.52824 -2.10344 0
      vertex -2.93893 -4.04508 0
    endloop
  endfacet
  facet normal -0 0 -1
    outer loop
      vertex -3.34565 -3.71572 0
      vertex -1.83848 -1.83848 0
      vertex -1.52824 -2.10344 0
    endloop
  endfacet
  facet normal -0.629326 -0.777142 -0
    outer loop
      vertex -3.34565 -3.71572 0
      vertex -2.93893 -4.04508 0
      vertex -2.93893 -4.04508 3.9
    endloop
  endfacet
  facet normal -0.629326 -0.777142 0
    outer loop
      vertex -3.34565 -3.71572 0
      vertex -2.93893 -4.04508 3.9
      vertex -3.34565 -3.71572 3.9
    endloop
  endfacet
  facet normal 0 0 1
    outer loop
      vertex -3.34565 -3.71572 3.9
      vertex -1.52824 -2.10344 3.9
      vertex -1.83848 -1.83848 3.9
    endloop
  endfacet
  facet normal 0 0 1
    outer loop
      vertex -3.34565 -3.71572 3.9
      vertex -2.93893 -4.04508 3.9
      vertex -1.52824 -2.10344 3.9
    endloop
  endfacet
  facet normal 0 0 -1
    outer loop
      vertex -3.34565 3.71572 0
      vertex -1.52824 2.10344 0
      vertex -1.83848 1.83848 0
    endloop
  endfacet
  facet normal 0 0 -1
    outer loop
      vertex -3.34565 3.71572 0
      vertex -2.93893 4.04508 0
      vertex -1.52824 2.10344 0
    endloop
  endfacet
  facet normal -0.629326 0.777142 0
    outer loop
      vertex -3.34565 3.71572 0
      vertex -3.34565 3.71572 3.9
      vertex -2.93893 4.04508 0
    endloop
  endfacet
  facet normal -0 0 1
    outer loop
      vertex -3.34565 3.71572 3.9
      vertex -1.52824 2.10344 3.9
      vertex -2.93893 4.04508 3.9
    endloop
  endfacet
  facet normal 0 0 1
    outer loop
      vertex -3.34565 3.71572 3.9
      vertex -1.83848 1.83848 3.9
      vertex -1.52824 2.10344 3.9
    endloop
  endfacet
  facet normal -0.629326 0.777142 0
    outer loop
      vertex -3.34565 3.71572 3.9
      vertex -2.93893 4.04508 3.9
      vertex -2.93893 4.04508 0
    endloop
  endfacet
  facet normal 0 0 -1
    outer loop
      vertex -3.71572 -3.34565 0
      vertex -1.83848 -1.83848 0
      vertex -3.34565 -3.71572 0
    endloop
  endfacet
  facet normal -0 0 -1
    outer loop
      vertex -3.71572 -3.34565 0
      vertex -2.10344 -1.52824 0
      vertex -1.83848 -1.83848 0
    endloop
  endfacet
  facet normal -0.707107 -0.707107 0
    outer loop
      vertex -3.71572 -3.34565 0
      vertex -3.34565 -3.71572 0
      vertex -3.71572 -3.34565 3.9
    endloop
  endfacet
  facet normal 0 0 1
    outer loop
      vertex -3.71572 -3.34565 3.9
      vertex -1.83848 -1.83848 3.9
      vertex -2.10344 -1.52824 3.9
    endloop
  endfacet
  facet normal -0.707107 -0.707107 0
    outer loop
      vertex -3.71572 -3.34565 3.9
      vertex -3.34565 -3.71572 0
      vertex -3.34565 -3.71572 3.9
    endloop
  endfacet
  facet normal 0 0 1
    outer loop
      vertex -3.71572 -3.34565 3.9
      vertex -3.34565 -3.71572 3.9
      vertex -1.83848 -1.83848 3.9
    endloop
  endfacet
  facet normal 0 0 -1
    outer loop
      vertex -3.71572 3.34565 0
      vertex -1.83848 1.83848 0
      vertex -2.10344 1.52824 0
    endloop
  endfacet
  facet normal 0 0 -1
    outer loop
      vertex -3.71572 3.34565 0
      vertex -3.34565 3.71572 0
      vertex -1.83848 1.83848 0
    endloop
  endfacet
  facet normal -0.707107 0.707107 0
    outer loop
      vertex -3.71572 3.34565 0
      vertex -3.34565 3.71572 3.9
      vertex -3.34565 3.71572 0
    endloop
  endfacet
  facet normal -0.707107 0.707107 0
    outer loop
      vertex -3.71572 3.34565 0
      vertex -3.71572 3.34565 3.9
      vertex -3.34565 3.71572 3.9
    endloop
  endfacet
  facet normal -0 0 1
    outer loop
      vertex -3.71572 3.34565 3.9
      vertex -1.83848 1.83848 3.9
      vertex -3.34565 3.71572 3.9
    endloop
  endfacet
  facet normal 0 0 1
    outer loop
      vertex -3.71572 3.34565 3.9
      vertex -2.10344 1.52824 3.9
      vertex -1.83848 1.83848 3.9
    endloop
  endfacet
  facet normal 0 0 -1
    outer loop
      vertex -4.04508 -2.93893 0
      vertex -2.10344 -1.52824 0
      vertex -3.71572 -3.34565 0
    endloop
  endfacet
  facet normal -0.777142 -0.629326 0
    outer loop
      vertex -4.04508 -2.93893 0
      vertex -3.71572 -3.34565 0
      vertex -4.04508 -2.93893 3.9
    endloop
  endfacet
  facet normal -0.777142 -0.629326 0
    outer loop
      vertex -4.04508 -2.93893 3.9
      vertex -3.71572 -3.34565 0
      vertex -3.71572 -3.34565 3.9
    endloop
  endfacet
  facet normal 0 0 1
    outer loop
      vertex -4.04508 -2.93893 3.9
      vertex -3.71572 -3.34565 3.9
      vertex -2.10344 -1.52824 3.9
    endloop
  endfacet
  facet normal 0 0 -1
    outer loop
      vertex -4.04508 2.93893 0
      vertex -3.71572 3.34565 0
      vertex -2.10344 1.52824 0
    endloop
  endfacet
  facet normal -0.777142 0.629326 0
    outer loop
      vertex -4.04508 2.93893 0
      vertex -3.71572 3.34565 3.9
      vertex -3.71572 3.34565 0
    endloop
  endfacet
  facet normal -0.777142 0.629326 0
    outer loop
      vertex -4.04508 2.93893 0
      vertex -4.04508 2.93893 3.9
      vertex -3.71572 3.34565 3.9
    endloop
  endfacet
  facet normal -0 0 1
    outer loop
      vertex -4.04508 2.93893 3.9
      vertex -2.10344 1.52824 3.9
      vertex -3.71572 3.34565 3.9
    endloop
  endfacet
  facet normal 0 0 -1
    outer loop
      vertex -4.33013 -2.5 0
      vertex -2.10344 -1.52824 0
      vertex -4.04508 -2.93893 0
    endloop
  endfacet
  facet normal -0 0 -1
    outer loop
      vertex -4.33013 -2.5 0
      vertex -2.31662 -1.18038 0
      vertex -2.10344 -1.52824 0
    endloop
  endfacet
  facet normal -0.838666 -0.544646 0
    outer loop
      vertex -4.33013 -2.5 0
      vertex -4.04508 -2.93893 0
      vertex -4.33013 -2.5 3.9
    endloop
  endfacet
  facet normal 0 0 1
    outer loop
      vertex -4.33013 -2.5 3.9
      vertex -2.10344 -1.52824 3.9
      vertex -2.31662 -1.18038 3.9
    endloop
  endfacet
  facet normal -0.838666 -0.544646 0
    outer loop
      vertex -4.33013 -2.5 3.9
      vertex -4.04508 -2.93893 0
      vertex -4.04508 -2.93893 3.9
    endloop
  endfacet
  facet normal 0 0 1
    outer loop
      vertex -4.33013 -2.5 3.9
      vertex -4.04508 -2.93893 3.9
      vertex -2.10344 -1.52824 3.9
    endloop
  endfacet
  facet normal 0 0 -1
    outer loop
      vertex -4.33013 2.5 0
      vertex -2.10344 1.52824 0
      vertex -2.31662 1.18038 0
    endloop
  endfacet
  facet normal 0 0 -1
    outer loop
      vertex -4.33013 2.5 0
      vertex -4.04508 2.93893 0
      vertex -2.10344 1.52824 0
    endloop
  endfacet
  facet normal -0.838666 0.544646 0
    outer loop
      vertex -4.33013 2.5 0
      vertex -4.04508 2.93893 3.9
      vertex -4.04508 2.93893 0
    endloop
  endfacet
  facet normal -0.838666 0.544646 0
    outer loop
      vertex -4.33013 2.5 0
      vertex -4.33013 2.5 3.9
      vertex -4.04508 2.93893 3.9
    endloop
  endfacet
  facet normal -0 0 1
    outer loop
      vertex -4.33013 2.5 3.9
      vertex -2.10344 1.52824 3.9
      vertex -4.04508 2.93893 3.9
    endloop
  endfacet
  facet normal 0 0 1
    outer loop
      vertex -4.33013 2.5 3.9
      vertex -2.31662 1.18038 3.9
      vertex -2.10344 1.52824 3.9
    endloop
  endfacet
  facet normal 0 0 -1
    outer loop
      vertex -4.56773 -2.03368 0
      vertex -2.31662 -1.18038 0
      vertex -4.33013 -2.5 0
    endloop
  endfacet
  facet normal -0 0 -1
    outer loop
      vertex -4.56773 -2.03368 0
      vertex -2.47275 -0.803444 0
      vertex -2.31662 -1.18038 0
    endloop
  endfacet
  facet normal -0.891008 -0.453988 0
    outer loop
      vertex -4.56773 -2.03368 0
      vertex -4.33013 -2.5 0
      vertex -4.56773 -2.03368 3.9
    endloop
  endfacet
  facet normal 0 0 1
    outer loop
      vertex -4.56773 -2.03368 3.9
      vertex -2.31662 -1.18038 3.9
      vertex -2.47275 -0.803444 3.9
    endloop
  endfacet
  facet normal -0.891008 -0.453988 0
    outer loop
      vertex -4.56773 -2.03368 3.9
      vertex -4.33013 -2.5 0
      vertex -4.33013 -2.5 3.9
    endloop
  endfacet
  facet normal 0 0 1
    outer loop
      vertex -4.56773 -2.03368 3.9
      vertex -4.33013 -2.5 3.9
      vertex -2.31662 -1.18038 3.9
    endloop
  endfacet
  facet normal 0 0 -1
    outer loop
      vertex -4.56773 2.03368 0
      vertex -2.31662 1.18038 0
      vertex -2.47275 0.803444 0
    endloop
  endfacet
  facet normal 0 0 -1
    outer loop
      vertex -4.56773 2.03368 0
      vertex -4.33013 2.5 0
      vertex -2.31662 1.18038 0
    endloop
  endfacet
  facet normal -0.891008 0.453988 0
    outer loop
      vertex -4.56773 2.03368 0
      vertex -4.33013 2.5 3.9
      vertex -4.33013 2.5 0
    endloop
  endfacet
  facet normal -0.891008 0.453988 0
    outer loop
      vertex -4.56773 2.03368 0
      vertex -4.56773 2.03368 3.9
      vertex -4.33013 2.5 3.9
    endloop
  endfacet
  facet normal -0 0 1
    outer loop
      vertex -4.56773 2.03368 3.9
      vertex -2.31662 1.18038 3.9
      vertex -4.33013 2.5 3.9
    endloop
  endfacet
  facet normal 0 0 1
    outer loop
      vertex -4.56773 2.03368 3.9
      vertex -2.47275 0.803444 3.9
      vertex -2.31662 1.18038 3.9
    endloop
  endfacet
  facet normal 0 0 -1
    outer loop
      vertex -4.75528 -1.54508 0
      vertex -2.47275 -0.803444 0
      vertex -4.56773 -2.03368 0
    endloop
  endfacet
  facet normal -0.933584 -0.358358 0
    outer loop
      vertex -4.75528 -1.54508 0
      vertex -4.56773 -2.03368 0
      vertex -4.75528 -1.54508 3.9
    endloop
  endfacet
  facet normal -0.933584 -0.358358 0
    outer loop
      vertex -4.75528 -1.54508 3.9
      vertex -4.56773 -2.03368 0
      vertex -4.56773 -2.03368 3.9
    endloop
  endfacet
  facet normal 0 0 1
    outer loop
      vertex -4.75528 -1.54508 3.9
      vertex -4.56773 -2.03368 3.9
      vertex -2.47275 -0.803444 3.9
    endloop
  endfacet
  facet normal 0 0 -1
    outer loop
      vertex -4.75528 1.54508 0
      vertex -4.56773 2.03368 0
      vertex -2.47275 0.803444 0
    endloop
  endfacet
  facet normal -0.933584 0.358358 0
    outer loop
      vertex -4.75528 1.54508 0
      vertex -4.56773 2.03368 3.9
      vertex -4.56773 2.03368 0
    endloop
  endfacet
  facet normal -0.933584 0.358358 0
    outer loop
      vertex -4.75528 1.54508 0
      vertex -4.75528 1.54508 3.9
      vertex -4.56773 2.03368 3.9
    endloop
  endfacet
  facet normal -0 0 1
    outer loop
      vertex -4.75528 1.54508 3.9
      vertex -2.47275 0.803444 3.9
      vertex -4.56773 2.03368 3.9
    endloop
  endfacet
  facet normal 0 0 -1
    outer loop
      vertex -4.89074 -1.03956 0
      vertex -2.47275 -0.803444 0
      vertex -4.75528 -1.54508 0
    endloop
  endfacet
  facet normal -0 0 -1
    outer loop
      vertex -4.89074 -1.03956 0
      vertex -2.56799 -0.406729 0
      vertex -2.47275 -0.803444 0
    endloop
  endfacet
  facet normal -0.965923 -0.25883 0
    outer loop
      vertex -4.89074 -1.03956 0
      vertex -4.75528 -1.54508 0
      vertex -4.89074 -1.03956 3.9
    endloop
  endfacet
  facet normal 0 0 1
    outer loop
      vertex -4.89074 -1.03956 3.9
      vertex -2.47275 -0.803444 3.9
      vertex -2.56799 -0.406729 3.9
    endloop
  endfacet
  facet normal -0.965923 -0.25883 0
    outer loop
      vertex -4.89074 -1.03956 3.9
      vertex -4.75528 -1.54508 0
      vertex -4.75528 -1.54508 3.9
    endloop
  endfacet
  facet normal 0 0 1
    outer loop
      vertex -4.89074 -1.03956 3.9
      vertex -4.75528 -1.54508 3.9
      vertex -2.47275 -0.803444 3.9
    endloop
  endfacet
  facet normal 0 0 -1
    outer loop
      vertex -4.89074 1.03956 0
      vertex -2.47275 0.803444 0
      vertex -2.56799 0.406729 0
    endloop
  endfacet
  facet normal 0 0 -1
    outer loop
      vertex -4.89074 1.03956 0
      vertex -4.75528 1.54508 0
      vertex -2.47275 0.803444 0
    endloop
  endfacet
  facet normal -0.965923 0.25883 0
    outer loop
      vertex -4.89074 1.03956 0
      vertex -4.75528 1.54508 3.9
      vertex -4.75528 1.54508 0
    endloop
  endfacet
  facet normal -0.965923 0.25883 0
    outer loop
      vertex -4.89074 1.03956 0
      vertex -4.89074 1.03956 3.9
      vertex -4.75528 1.54508 3.9
    endloop
  endfacet
  facet normal -0 0 1
    outer loop
      vertex -4.89074 1.03956 3.9
      vertex -2.47275 0.803444 3.9
      vertex -4.75528 1.54508 3.9
    endloop
  endfacet
  facet normal 0 0 1
    outer loop
      vertex -4.89074 1.03956 3.9
      vertex -2.56799 0.406729 3.9
      vertex -2.47275 0.803444 3.9
    endloop
  endfacet
  facet normal 0 0 -1
    outer loop
      vertex -4.97261 -0.522642 0
      vertex -2.56799 -0.406729 0
      vertex -4.89074 -1.03956 0
    endloop
  endfacet
  facet normal -0 0 -1
    outer loop
      vertex -4.97261 -0.522642 0
      vertex -2.6 0 0
      vertex -2.56799 -0.406729 0
    endloop
  endfacet
  facet normal -0.987689 -0.156431 0
    outer loop
      vertex -4.97261 -0.522642 0
      vertex -4.89074 -1.03956 0
      vertex -4.97261 -0.522642 3.9
    endloop
  endfacet
  facet normal 0 0 1
    outer loop
      vertex -4.97261 -0.522642 3.9
      vertex -2.56799 -0.406729 3.9
      vertex -2.6 0 3.9
    endloop
  endfacet
  facet normal -0.987689 -0.156431 0
    outer loop
      vertex -4.97261 -0.522642 3.9
      vertex -4.89074 -1.03956 0
      vertex -4.89074 -1.03956 3.9
    endloop
  endfacet
  facet normal 0 0 1
    outer loop
      vertex -4.97261 -0.522642 3.9
      vertex -4.89074 -1.03956 3.9
      vertex -2.56799 -0.406729 3.9
    endloop
  endfacet
  facet normal 0 0 -1
    outer loop
      vertex -4.97261 0.522642 0
      vertex -2.56799 0.406729 0
      vertex -2.6 0 0
    endloop
  endfacet
  facet normal 0 0 -1
    outer loop
      vertex -4.97261 0.522642 0
      vertex -4.89074 1.03956 0
      vertex -2.56799 0.406729 0
    endloop
  endfacet
  facet normal -0.987689 0.156431 0
    outer loop
      vertex -4.97261 0.522642 0
      vertex -4.89074 1.03956 3.9
      vertex -4.89074 1.03956 0
    endloop
  endfacet
  facet normal -0.987689 0.156431 0
    outer loop
      vertex -4.97261 0.522642 0
      vertex -4.97261 0.522642 3.9
      vertex -4.89074 1.03956 3.9
    endloop
  endfacet
  facet normal -0 0 1
    outer loop
      vertex -4.97261 0.522642 3.9
      vertex -2.56799 0.406729 3.9
      vertex -4.89074 1.03956 3.9
    endloop
  endfacet
  facet normal 0 0 1
    outer loop
      vertex -4.97261 0.522642 3.9
      vertex -2.6 0 3.9
      vertex -2.56799 0.406729 3.9
    endloop
  endfacet
  facet normal 0 0 -1
    outer loop
      vertex -5 0 0
      vertex -2.6 0 0
      vertex -4.97261 -0.522642 0
    endloop
  endfacet
  facet normal -0.99863 -0.052335 0
    outer loop
      vertex -5 0 0
      vertex -4.97261 -0.522642 0
      vertex -5 0 3.9
    endloop
  endfacet
  facet normal 0 0 -1
    outer loop
      vertex -5 0 0
      vertex -4.97261 0.522642 0
      vertex -2.6 0 0
    endloop
  endfacet
  facet normal -0.99863 0.052335 0
    outer loop
      vertex -5 0 0
      vertex -4.97261 0.522642 3.9
      vertex -4.97261 0.522642 0
    endloop
  endfacet
  facet normal -0.99863 0.052335 0
    outer loop
      vertex -5 0 0
      vertex -5 0 3.9
      vertex -4.97261 0.522642 3.9
    endloop
  endfacet
  facet normal 0 0 1
    outer loop
      vertex -5 0 3.9
      vertex -2.6 0 3.9
      vertex -4.97261 0.522642 3.9
    endloop
  endfacet
  facet normal -0.99863 -0.052335 0
    outer loop
      vertex -5 0 3.9
      vertex -4.97261 -0.522642 0
      vertex -4.97261 -0.522642 3.9
    endloop
  endfacet
  facet normal 0 0 1
    outer loop
      vertex -5 0 3.9
      vertex -4.97261 -0.522642 3.9
      vertex -2.6 0 3.9
    endloop
  endfacet
  facet normal -0.0784584 0.996917 0
    outer loop
      vertex 0 -2.6 0
      vertex 0 -2.6 3.9
      vertex 0.406729 -2.56799 0
    endloop
  endfacet
  facet normal 0 0 -1
    outer loop
      vertex 0 -2.6 0
      vertex 0.406729 -2.56799 0
      vertex 0.522642 -4.97261 0
    endloop
  endfacet
  facet normal -0.0784584 0.996917 0
    outer loop
      vertex 0 -2.6 3.9
      vertex 0.406729 -2.56799 3.9
      vertex 0.406729 -2.56799 0
    endloop
  endfacet
  facet normal -0 0 1
    outer loop
      vertex 0 -2.6 3.9
      vertex 0.522642 -4.97261 3.9
      vertex 0.406729 -2.56799 3.9
    endloop
  endfacet
  facet normal 0 0 -1
    outer loop
      vertex 0 -5 0
      vertex 0 -2.6 0
      vertex 0.522642 -4.97261 0
    endloop
  endfacet
  facet normal 0.052335 -0.99863 0
    outer loop
      vertex 0 -5 0
      vertex 0.522642 -4.97261 0
      vertex 0.522642 -4.97261 3.9
    endloop
  endfacet
  facet normal 0.052335 -0.99863 0
    outer loop
      vertex 0 -5 0
      vertex 0.522642 -4.97261 3.9
      vertex 0 -5 3.9
    endloop
  endfacet
  facet normal 0 0 1
    outer loop
      vertex 0 -5 3.9
      vertex 0.522642 -4.97261 3.9
      vertex 0 -2.6 3.9
    endloop
  endfacet
  facet normal 0 0 -1
    outer loop
      vertex 0 2.6 0
      vertex 0 5 0
      vertex 0.522642 4.97261 0
    endloop
  endfacet
  facet normal -0.0784584 -0.996917 -0
    outer loop
      vertex 0 2.6 0
      vertex 0.406729 2.56799 0
      vertex 0.406729 2.56799 3.9
    endloop
  endfacet
  facet normal -0.0784584 -0.996917 0
    outer loop
      vertex 0 2.6 0
      vertex 0.406729 2.56799 3.9
      vertex 0 2.6 3.9
    endloop
  endfacet
  facet normal 0 0 -1
    outer loop
      vertex 0 2.6 0
      vertex 0.522642 4.97261 0
      vertex 0.406729 2.56799 0
    endloop
  endfacet
  facet normal 0 0 1
    outer loop
      vertex 0 2.6 3.9
      vertex 0.406729 2.56799 3.9
      vertex 0.522642 4.97261 3.9
    endloop
  endfacet
  facet normal 0 0 1
    outer loop
      vertex 0 2.6 3.9
      vertex 0.522642 4.97261 3.9
      vertex 0 5 3.9
    endloop
  endfacet
  facet normal 0.052335 0.99863 0
    outer loop
      vertex 0 5 0
      vertex 0 5 3.9
      vertex 0.522642 4.97261 0
    endloop
  endfacet
  facet normal 0.052335 0.99863 -0
    outer loop
      vertex 0 5 3.9
      vertex 0.522642 4.97261 3.9
      vertex 0.522642 4.97261 0
    endloop
  endfacet
  facet normal -0.233439 0.972372 0
    outer loop
      vertex 0.406729 -2.56799 0
      vertex 0.406729 -2.56799 3.9
      vertex 0.803444 -2.47275 0
    endloop
  endfacet
  facet normal 0 0 -1
    outer loop
      vertex 0.406729 -2.56799 0
      vertex 0.803444 -2.47275 0
      vertex 1.03956 -4.89074 0
    endloop
  endfacet
  facet normal 0 0 -1
    outer loop
      vertex 0.406729 -2.56799 0
      vertex 1.03956 -4.89074 0
      vertex 0.522642 -4.97261 0
    endloop
  endfacet
  facet normal 0 0 1
    outer loop
      vertex 0.406729 -2.56799 3.9
      vertex 0.522642 -4.97261 3.9
      vertex 1.03956 -4.89074 3.9
    endloop
  endfacet
  facet normal -0.233439 0.972372 0
    outer loop
      vertex 0.406729 -2.56799 3.9
      vertex 0.803444 -2.47275 3.9
      vertex 0.803444 -2.47275 0
    endloop
  endfacet
  facet normal -0 0 1
    outer loop
      vertex 0.406729 -2.56799 3.9
      vertex 1.03956 -4.89074 3.9
      vertex 0.803444 -2.47275 3.9
    endloop
  endfacet
  facet normal -0 0 -1
    outer loop
      vertex 0.406729 2.56799 0
      vertex 0.522642 4.97261 0
      vertex 1.03956 4.89074 0
    endloop
  endfacet
  facet normal -0.233439 -0.972372 -0
    outer loop
      vertex 0.406729 2.56799 0
      vertex 0.803444 2.47275 0
      vertex 0.803444 2.47275 3.9
    endloop
  endfacet
  facet normal -0.233439 -0.972372 0
    outer loop
      vertex 0.406729 2.56799 0
      vertex 0.803444 2.47275 3.9
      vertex 0.406729 2.56799 3.9
    endloop
  endfacet
  facet normal 0 0 -1
    outer loop
      vertex 0.406729 2.56799 0
      vertex 1.03956 4.89074 0
      vertex 0.803444 2.47275 0
    endloop
  endfacet
  facet normal 0 0 1
    outer loop
      vertex 0.406729 2.56799 3.9
      vertex 0.803444 2.47275 3.9
      vertex 1.03956 4.89074 3.9
    endloop
  endfacet
  facet normal 0 0 1
    outer loop
      vertex 0.406729 2.56799 3.9
      vertex 1.03956 4.89074 3.9
      vertex 0.522642 4.97261 3.9
    endloop
  endfacet
  facet normal 0.156431 -0.987689 0
    outer loop
      vertex 0.522642 -4.97261 0
      vertex 1.03956 -4.89074 0
      vertex 1.03956 -4.89074 3.9
    endloop
  endfacet
  facet normal 0.156431 -0.987689 0
    outer loop
      vertex 0.522642 -4.97261 0
      vertex 1.03956 -4.89074 3.9
      vertex 0.522642 -4.97261 3.9
    endloop
  endfacet
  facet normal 0.156431 0.987689 0
    outer loop
      vertex 0.522642 4.97261 0
      vertex 0.522642 4.97261 3.9
      vertex 1.03956 4.89074 0
    endloop
  endfacet
  facet normal 0.156431 0.987689 -0
    outer loop
      vertex 0.522642 4.97261 3.9
      vertex 1.03956 4.89074 3.9
      vertex 1.03956 4.89074 0
    endloop
  endfacet
  facet normal -0.382679 0.923881 0
    outer loop
      vertex 0.803444 -2.47275 0
      vertex 0.803444 -2.47275 3.9
      vertex 1.18038 -2.31662 0
    endloop
  endfacet
  facet normal 0 0 -1
    outer loop
      vertex 0.803444 -2.47275 0
      vertex 1.18038 -2.31662 0
      vertex 2.03368 -4.56773 0
    endloop
  endfacet
  facet normal 0 0 -1
    outer loop
      vertex 0.803444 -2.47275 0
      vertex 1.54508 -4.75528 0
      vertex 1.03956 -4.89074 0
    endloop
  endfacet
  facet normal 0 0 -1
    outer loop
      vertex 0.803444 -2.47275 0
      vertex 2.03368 -4.56773 0
      vertex 1.54508 -4.75528 0
    endloop
  endfacet
  facet normal 0 0 1
    outer loop
      vertex 0.803444 -2.47275 3.9
      vertex 1.03956 -4.89074 3.9
      vertex 1.54508 -4.75528 3.9
    endloop
  endfacet
  facet normal -0.382679 0.923881 0
    outer loop
      vertex 0.803444 -2.47275 3.9
      vertex 1.18038 -2.31662 3.9
      vertex 1.18038 -2.31662 0
    endloop
  endfacet
  facet normal 0 0 1
    outer loop
      vertex 0.803444 -2.47275 3.9
      vertex 1.54508 -4.75528 3.9
      vertex 2.03368 -4.56773 3.9
    endloop
  endfacet
  facet normal -0 0 1
    outer loop
      vertex 0.803444 -2.47275 3.9
      vertex 2.03368 -4.56773 3.9
      vertex 1.18038 -2.31662 3.9
    endloop
  endfacet
  facet normal -0 0 -1
    outer loop
      vertex 0.803444 2.47275 0
      vertex 1.03956 4.89074 0
      vertex 1.54508 4.75528 0
    endloop
  endfacet
  facet normal -0.382679 -0.923881 -0
    outer loop
      vertex 0.803444 2.47275 0
      vertex 1.18038 2.31662 0
      vertex 1.18038 2.31662 3.9
    endloop
  endfacet
  facet normal -0.382679 -0.923881 0
    outer loop
      vertex 0.803444 2.47275 0
      vertex 1.18038 2.31662 3.9
      vertex 0.803444 2.47275 3.9
    endloop
  endfacet
  facet normal -0 0 -1
    outer loop
      vertex 0.803444 2.47275 0
      vertex 1.54508 4.75528 0
      vertex 2.03368 4.56773 0
    endloop
  endfacet
  facet normal 0 0 -1
    outer loop
      vertex 0.803444 2.47275 0
      vertex 2.03368 4.56773 0
      vertex 1.18038 2.31662 0
    endloop
  endfacet
  facet normal 0 0 1
    outer loop
      vertex 0.803444 2.47275 3.9
      vertex 1.18038 2.31662 3.9
      vertex 2.03368 4.56773 3.9
    endloop
  endfacet
  facet normal 0 0 1
    outer loop
      vertex 0.803444 2.47275 3.9
      vertex 1.54508 4.75528 3.9
      vertex 1.03956 4.89074 3.9
    endloop
  endfacet
  facet normal 0 0 1
    outer loop
      vertex 0.803444 2.47275 3.9
      vertex 2.03368 4.56773 3.9
      vertex 1.54508 4.75528 3.9
    endloop
  endfacet
  facet normal 0.25883 -0.965923 0
    outer loop
      vertex 1.03956 -4.89074 0
      vertex 1.54508 -4.75528 0
      vertex 1.54508 -4.75528 3.9
    endloop
  endfacet
  facet normal 0.25883 -0.965923 0
    outer loop
      vertex 1.03956 -4.89074 0
      vertex 1.54508 -4.75528 3.9
      vertex 1.03956 -4.89074 3.9
    endloop
  endfacet
  facet normal 0.25883 0.965923 0
    outer loop
      vertex 1.03956 4.89074 0
      vertex 1.03956 4.89074 3.9
      vertex 1.54508 4.75528 0
    endloop
  endfacet
  facet normal 0.25883 0.965923 -0
    outer loop
      vertex 1.03956 4.89074 3.9
      vertex 1.54508 4.75528 3.9
      vertex 1.54508 4.75528 0
    endloop
  endfacet
  facet normal -0.522518 0.852628 0
    outer loop
      vertex 1.18038 -2.31662 0
      vertex 1.18038 -2.31662 3.9
      vertex 1.52824 -2.10344 0
    endloop
  endfacet
  facet normal 0 0 -1
    outer loop
      vertex 1.18038 -2.31662 0
      vertex 1.52824 -2.10344 0
      vertex 2.5 -4.33013 0
    endloop
  endfacet
  facet normal 0 0 -1
    outer loop
      vertex 1.18038 -2.31662 0
      vertex 2.5 -4.33013 0
      vertex 2.03368 -4.56773 0
    endloop
  endfacet
  facet normal -0.522518 0.852628 0
    outer loop
      vertex 1.18038 -2.31662 3.9
      vertex 1.52824 -2.10344 3.9
      vertex 1.52824 -2.10344 0
    endloop
  endfacet
  facet normal 0 0 1
    outer loop
      vertex 1.18038 -2.31662 3.9
      vertex 2.03368 -4.56773 3.9
      vertex 2.5 -4.33013 3.9
    endloop
  endfacet
  facet normal -0 0 1
    outer loop
      vertex 1.18038 -2.31662 3.9
      vertex 2.5 -4.33013 3.9
      vertex 1.52824 -2.10344 3.9
    endloop
  endfacet
  facet normal -0.522518 -0.852628 -0
    outer loop
      vertex 1.18038 2.31662 0
      vertex 1.52824 2.10344 0
      vertex 1.52824 2.10344 3.9
    endloop
  endfacet
  facet normal -0.522518 -0.852628 0
    outer loop
      vertex 1.18038 2.31662 0
      vertex 1.52824 2.10344 3.9
      vertex 1.18038 2.31662 3.9
    endloop
  endfacet
  facet normal -0 0 -1
    outer loop
      vertex 1.18038 2.31662 0
      vertex 2.03368 4.56773 0
      vertex 2.5 4.33013 0
    endloop
  endfacet
  facet normal 0 0 -1
    outer loop
      vertex 1.18038 2.31662 0
      vertex 2.5 4.33013 0
      vertex 1.52824 2.10344 0
    endloop
  endfacet
  facet normal 0 0 1
    outer loop
      vertex 1.18038 2.31662 3.9
      vertex 1.52824 2.10344 3.9
      vertex 2.5 4.33013 3.9
    endloop
  endfacet
  facet normal 0 0 1
    outer loop
      vertex 1.18038 2.31662 3.9
      vertex 2.5 4.33013 3.9
      vertex 2.03368 4.56773 3.9
    endloop
  endfacet
  facet normal -0.649434 0.760418 0
    outer loop
      vertex 1.52824 -2.10344 0
      vertex 1.52824 -2.10344 3.9
      vertex 1.83848 -1.83848 0
    endloop
  endfacet
  facet normal 0 0 -1
    outer loop
      vertex 1.52824 -2.10344 0
      vertex 1.83848 -1.83848 0
      vertex 3.34565 -3.71572 0
    endloop
  endfacet
  facet normal 0 0 -1
    outer loop
      vertex 1.52824 -2.10344 0
      vertex 2.93893 -4.04508 0
      vertex 2.5 -4.33013 0
    endloop
  endfacet
  facet normal 0 0 -1
    outer loop
      vertex 1.52824 -2.10344 0
      vertex 3.34565 -3.71572 0
      vertex 2.93893 -4.04508 0
    endloop
  endfacet
  facet normal -0.649434 0.760418 0
    outer loop
      vertex 1.52824 -2.10344 3.9
      vertex 1.83848 -1.83848 3.9
      vertex 1.83848 -1.83848 0
    endloop
  endfacet
  facet normal 0 0 1
    outer loop
      vertex 1.52824 -2.10344 3.9
      vertex 2.5 -4.33013 3.9
      vertex 2.93893 -4.04508 3.9
    endloop
  endfacet
  facet normal 0 0 1
    outer loop
      vertex 1.52824 -2.10344 3.9
      vertex 2.93893 -4.04508 3.9
      vertex 3.34565 -3.71572 3.9
    endloop
  endfacet
  facet normal -0 0 1
    outer loop
      vertex 1.52824 -2.10344 3.9
      vertex 3.34565 -3.71572 3.9
      vertex 1.83848 -1.83848 3.9
    endloop
  endfacet
  facet normal -0.649434 -0.760418 -0
    outer loop
      vertex 1.52824 2.10344 0
      vertex 1.83848 1.83848 0
      vertex 1.83848 1.83848 3.9
    endloop
  endfacet
  facet normal -0.649434 -0.760418 0
    outer loop
      vertex 1.52824 2.10344 0
      vertex 1.83848 1.83848 3.9
      vertex 1.52824 2.10344 3.9
    endloop
  endfacet
  facet normal -0 0 -1
    outer loop
      vertex 1.52824 2.10344 0
      vertex 2.5 4.33013 0
      vertex 2.93893 4.04508 0
    endloop
  endfacet
  facet normal -0 0 -1
    outer loop
      vertex 1.52824 2.10344 0
      vertex 2.93893 4.04508 0
      vertex 3.34565 3.71572 0
    endloop
  endfacet
  facet normal 0 0 -1
    outer loop
      vertex 1.52824 2.10344 0
      vertex 3.34565 3.71572 0
      vertex 1.83848 1.83848 0
    endloop
  endfacet
  facet normal 0 0 1
    outer loop
      vertex 1.52824 2.10344 3.9
      vertex 1.83848 1.83848 3.9
      vertex 3.34565 3.71572 3.9
    endloop
  endfacet
  facet normal 0 0 1
    outer loop
      vertex 1.52824 2.10344 3.9
      vertex 2.93893 4.04508 3.9
      vertex 2.5 4.33013 3.9
    endloop
  endfacet
  facet normal 0 0 1
    outer loop
      vertex 1.52824 2.10344 3.9
      vertex 3.34565 3.71572 3.9
      vertex 2.93893 4.04508 3.9
    endloop
  endfacet
  facet normal 0.358358 -0.933584 0
    outer loop
      vertex 1.54508 -4.75528 0
      vertex 2.03368 -4.56773 0
      vertex 2.03368 -4.56773 3.9
    endloop
  endfacet
  facet normal 0.358358 -0.933584 0
    outer loop
      vertex 1.54508 -4.75528 0
      vertex 2.03368 -4.56773 3.9
      vertex 1.54508 -4.75528 3.9
    endloop
  endfacet
  facet normal 0.358358 0.933584 0
    outer loop
      vertex 1.54508 4.75528 0
      vertex 1.54508 4.75528 3.9
      vertex 2.03368 4.56773 0
    endloop
  endfacet
  facet normal 0.358358 0.933584 -0
    outer loop
      vertex 1.54508 4.75528 3.9
      vertex 2.03368 4.56773 3.9
      vertex 2.03368 4.56773 0
    endloop
  endfacet
  facet normal -0.760418 0.649434 0
    outer loop
      vertex 1.83848 -1.83848 0
      vertex 1.83848 -1.83848 3.9
      vertex 2.10344 -1.52824 3.9
    endloop
  endfacet
  facet normal 0 0 -1
    outer loop
      vertex 1.83848 -1.83848 0
      vertex 2.10344 -1.52824 0
      vertex 3.71572 -3.34565 0
    endloop
  endfacet
  facet normal -0.760418 0.649434 0
    outer loop
      vertex 1.83848 -1.83848 0
      vertex 2.10344 -1.52824 3.9
      vertex 2.10344 -1.52824 0
    endloop
  endfacet
  facet normal 0 0 -1
    outer loop
      vertex 1.83848 -1.83848 0
      vertex 3.71572 -3.34565 0
      vertex 3.34565 -3.71572 0
    endloop
  endfacet
  facet normal 0 0 1
    outer loop
      vertex 1.83848 -1.83848 3.9
      vertex 3.34565 -3.71572 3.9
      vertex 3.71572 -3.34565 3.9
    endloop
  endfacet
  facet normal -0 0 1
    outer loop
      vertex 1.83848 -1.83848 3.9
      vertex 3.71572 -3.34565 3.9
      vertex 2.10344 -1.52824 3.9
    endloop
  endfacet
  facet normal -0.760418 -0.649434 0
    outer loop
      vertex 1.83848 1.83848 0
      vertex 2.10344 1.52824 0
      vertex 1.83848 1.83848 3.9
    endloop
  endfacet
  facet normal -0 0 -1
    outer loop
      vertex 1.83848 1.83848 0
      vertex 3.34565 3.71572 0
      vertex 3.71572 3.34565 0
    endloop
  endfacet
  facet normal 0 0 -1
    outer loop
      vertex 1.83848 1.83848 0
      vertex 3.71572 3.34565 0
      vertex 2.10344 1.52824 0
    endloop
  endfacet
  facet normal -0.760418 -0.649434 0
    outer loop
      vertex 1.83848 1.83848 3.9
      vertex 2.10344 1.52824 0
      vertex 2.10344 1.52824 3.9
    endloop
  endfacet
  facet normal 0 0 1
    outer loop
      vertex 1.83848 1.83848 3.9
      vertex 2.10344 1.52824 3.9
      vertex 3.71572 3.34565 3.9
    endloop
  endfacet
  facet normal 0 0 1
    outer loop
      vertex 1.83848 1.83848 3.9
      vertex 3.71572 3.34565 3.9
      vertex 3.34565 3.71572 3.9
    endloop
  endfacet
  facet normal 0.453988 -0.891008 0
    outer loop
      vertex 2.03368 -4.56773 0
      vertex 2.5 -4.33013 0
      vertex 2.5 -4.33013 3.9
    endloop
  endfacet
  facet normal 0.453988 -0.891008 0
    outer loop
      vertex 2.03368 -4.56773 0
      vertex 2.5 -4.33013 3.9
      vertex 2.03368 -4.56773 3.9
    endloop
  endfacet
  facet normal 0.453988 0.891008 0
    outer loop
      vertex 2.03368 4.56773 0
      vertex 2.03368 4.56773 3.9
      vertex 2.5 4.33013 0
    endloop
  endfacet
  facet normal 0.453988 0.891008 -0
    outer loop
      vertex 2.03368 4.56773 3.9
      vertex 2.5 4.33013 3.9
      vertex 2.5 4.33013 0
    endloop
  endfacet
  facet normal -0.852628 0.522518 0
    outer loop
      vertex 2.10344 -1.52824 0
      vertex 2.10344 -1.52824 3.9
      vertex 2.31662 -1.18038 3.9
    endloop
  endfacet
  facet normal 0 0 -1
    outer loop
      vertex 2.10344 -1.52824 0
      vertex 2.31662 -1.18038 0
      vertex 4.33013 -2.5 0
    endloop
  endfacet
  facet normal -0.852628 0.522518 0
    outer loop
      vertex 2.10344 -1.52824 0
      vertex 2.31662 -1.18038 3.9
      vertex 2.31662 -1.18038 0
    endloop
  endfacet
  facet normal 0 0 -1
    outer loop
      vertex 2.10344 -1.52824 0
      vertex 4.04508 -2.93893 0
      vertex 3.71572 -3.34565 0
    endloop
  endfacet
  facet normal 0 0 -1
    outer loop
      vertex 2.10344 -1.52824 0
      vertex 4.33013 -2.5 0
      vertex 4.04508 -2.93893 0
    endloop
  endfacet
  facet normal 0 0 1
    outer loop
      vertex 2.10344 -1.52824 3.9
      vertex 3.71572 -3.34565 3.9
      vertex 4.04508 -2.93893 3.9
    endloop
  endfacet
  facet normal 0 0 1
    outer loop
      vertex 2.10344 -1.52824 3.9
      vertex 4.04508 -2.93893 3.9
      vertex 4.33013 -2.5 3.9
    endloop
  endfacet
  facet normal -0 0 1
    outer loop
      vertex 2.10344 -1.52824 3.9
      vertex 4.33013 -2.5 3.9
      vertex 2.31662 -1.18038 3.9
    endloop
  endfacet
  facet normal -0.852628 -0.522518 0
    outer loop
      vertex 2.10344 1.52824 0
      vertex 2.31662 1.18038 0
      vertex 2.10344 1.52824 3.9
    endloop
  endfacet
  facet normal -0 0 -1
    outer loop
      vertex 2.10344 1.52824 0
      vertex 3.71572 3.34565 0
      vertex 4.04508 2.93893 0
    endloop
  endfacet
  facet normal -0 0 -1
    outer loop
      vertex 2.10344 1.52824 0
      vertex 4.04508 2.93893 0
      vertex 4.33013 2.5 0
    endloop
  endfacet
  facet normal 0 0 -1
    outer loop
      vertex 2.10344 1.52824 0
      vertex 4.33013 2.5 0
      vertex 2.31662 1.18038 0
    endloop
  endfacet
  facet normal -0.852628 -0.522518 0
    outer loop
      vertex 2.10344 1.52824 3.9
      vertex 2.31662 1.18038 0
      vertex 2.31662 1.18038 3.9
    endloop
  endfacet
  facet normal 0 0 1
    outer loop
      vertex 2.10344 1.52824 3.9
      vertex 2.31662 1.18038 3.9
      vertex 4.33013 2.5 3.9
    endloop
  endfacet
  facet normal 0 0 1
    outer loop
      vertex 2.10344 1.52824 3.9
      vertex 4.04508 2.93893 3.9
      vertex 3.71572 3.34565 3.9
    endloop
  endfacet
  facet normal 0 0 1
    outer loop
      vertex 2.10344 1.52824 3.9
      vertex 4.33013 2.5 3.9
      vertex 4.04508 2.93893 3.9
    endloop
  endfacet
  facet normal -0.923881 0.382679 0
    outer loop
      vertex 2.31662 -1.18038 0
      vertex 2.31662 -1.18038 3.9
      vertex 2.47275 -0.803444 3.9
    endloop
  endfacet
  facet normal 0 0 -1
    outer loop
      vertex 2.31662 -1.18038 0
      vertex 2.47275 -0.803444 0
      vertex 4.56773 -2.03368 0
    endloop
  endfacet
  facet normal -0.923881 0.382679 0
    outer loop
      vertex 2.31662 -1.18038 0
      vertex 2.47275 -0.803444 3.9
      vertex 2.47275 -0.803444 0
    endloop
  endfacet
  facet normal 0 0 -1
    outer loop
      vertex 2.31662 -1.18038 0
      vertex 4.56773 -2.03368 0
      vertex 4.33013 -2.5 0
    endloop
  endfacet
  facet normal 0 0 1
    outer loop
      vertex 2.31662 -1.18038 3.9
      vertex 4.33013 -2.5 3.9
      vertex 4.56773 -2.03368 3.9
    endloop
  endfacet
  facet normal -0 0 1
    outer loop
      vertex 2.31662 -1.18038 3.9
      vertex 4.56773 -2.03368 3.9
      vertex 2.47275 -0.803444 3.9
    endloop
  endfacet
  facet normal -0.923881 -0.382679 0
    outer loop
      vertex 2.31662 1.18038 0
      vertex 2.47275 0.803444 0
      vertex 2.31662 1.18038 3.9
    endloop
  endfacet
  facet normal -0 0 -1
    outer loop
      vertex 2.31662 1.18038 0
      vertex 4.33013 2.5 0
      vertex 4.56773 2.03368 0
    endloop
  endfacet
  facet normal 0 0 -1
    outer loop
      vertex 2.31662 1.18038 0
      vertex 4.56773 2.03368 0
      vertex 2.47275 0.803444 0
    endloop
  endfacet
  facet normal -0.923881 -0.382679 0
    outer loop
      vertex 2.31662 1.18038 3.9
      vertex 2.47275 0.803444 0
      vertex 2.47275 0.803444 3.9
    endloop
  endfacet
  facet normal 0 0 1
    outer loop
      vertex 2.31662 1.18038 3.9
      vertex 2.47275 0.803444 3.9
      vertex 4.56773 2.03368 3.9
    endloop
  endfacet
  facet normal 0 0 1
    outer loop
      vertex 2.31662 1.18038 3.9
      vertex 4.56773 2.03368 3.9
      vertex 4.33013 2.5 3.9
    endloop
  endfacet
  facet normal -0.972372 0.233439 0
    outer loop
      vertex 2.47275 -0.803444 0
      vertex 2.47275 -0.803444 3.9
      vertex 2.56799 -0.406729 3.9
    endloop
  endfacet
  facet normal 0 0 -1
    outer loop
      vertex 2.47275 -0.803444 0
      vertex 2.56799 -0.406729 0
      vertex 4.89074 -1.03956 0
    endloop
  endfacet
  facet normal -0.972372 0.233439 0
    outer loop
      vertex 2.47275 -0.803444 0
      vertex 2.56799 -0.406729 3.9
      vertex 2.56799 -0.406729 0
    endloop
  endfacet
  facet normal 0 0 -1
    outer loop
      vertex 2.47275 -0.803444 0
      vertex 4.75528 -1.54508 0
      vertex 4.56773 -2.03368 0
    endloop
  endfacet
  facet normal 0 0 -1
    outer loop
      vertex 2.47275 -0.803444 0
      vertex 4.89074 -1.03956 0
      vertex 4.75528 -1.54508 0
    endloop
  endfacet
  facet normal 0 0 1
    outer loop
      vertex 2.47275 -0.803444 3.9
      vertex 4.56773 -2.03368 3.9
      vertex 4.75528 -1.54508 3.9
    endloop
  endfacet
  facet normal 0 0 1
    outer loop
      vertex 2.47275 -0.803444 3.9
      vertex 4.75528 -1.54508 3.9
      vertex 4.89074 -1.03956 3.9
    endloop
  endfacet
  facet normal -0 0 1
    outer loop
      vertex 2.47275 -0.803444 3.9
      vertex 4.89074 -1.03956 3.9
      vertex 2.56799 -0.406729 3.9
    endloop
  endfacet
  facet normal -0.972372 -0.233439 0
    outer loop
      vertex 2.47275 0.803444 0
      vertex 2.56799 0.406729 0
      vertex 2.47275 0.803444 3.9
    endloop
  endfacet
  facet normal -0 0 -1
    outer loop
      vertex 2.47275 0.803444 0
      vertex 4.56773 2.03368 0
      vertex 4.75528 1.54508 0
    endloop
  endfacet
  facet normal -0 0 -1
    outer loop
      vertex 2.47275 0.803444 0
      vertex 4.75528 1.54508 0
      vertex 4.89074 1.03956 0
    endloop
  endfacet
  facet normal 0 0 -1
    outer loop
      vertex 2.47275 0.803444 0
      vertex 4.89074 1.03956 0
      vertex 2.56799 0.406729 0
    endloop
  endfacet
  facet normal -0.972372 -0.233439 0
    outer loop
      vertex 2.47275 0.803444 3.9
      vertex 2.56799 0.406729 0
      vertex 2.56799 0.406729 3.9
    endloop
  endfacet
  facet normal 0 0 1
    outer loop
      vertex 2.47275 0.803444 3.9
      vertex 2.56799 0.406729 3.9
      vertex 4.89074 1.03956 3.9
    endloop
  endfacet
  facet normal 0 0 1
    outer loop
      vertex 2.47275 0.803444 3.9
      vertex 4.75528 1.54508 3.9
      vertex 4.56773 2.03368 3.9
    endloop
  endfacet
  facet normal 0 0 1
    outer loop
      vertex 2.47275 0.803444 3.9
      vertex 4.89074 1.03956 3.9
      vertex 4.75528 1.54508 3.9
    endloop
  endfacet
  facet normal 0.544646 -0.838666 0
    outer loop
      vertex 2.5 -4.33013 0
      vertex 2.93893 -4.04508 0
      vertex 2.93893 -4.04508 3.9
    endloop
  endfacet
  facet normal 0.544646 -0.838666 0
    outer loop
      vertex 2.5 -4.33013 0
      vertex 2.93893 -4.04508 3.9
      vertex 2.5 -4.33013 3.9
    endloop
  endfacet
  facet normal 0.544646 0.838666 0
    outer loop
      vertex 2.5 4.33013 0
      vertex 2.5 4.33013 3.9
      vertex 2.93893 4.04508 0
    endloop
  endfacet
  facet normal 0.544646 0.838666 -0
    outer loop
      vertex 2.5 4.33013 3.9
      vertex 2.93893 4.04508 3.9
      vertex 2.93893 4.04508 0
    endloop
  endfacet
  facet normal -0.996917 0.0784584 0
    outer loop
      vertex 2.56799 -0.406729 0
      vertex 2.56799 -0.406729 3.9
      vertex 2.6 0 3.9
    endloop
  endfacet
  facet normal 0 0 -1
    outer loop
      vertex 2.56799 -0.406729 0
      vertex 2.6 0 0
      vertex 4.97261 -0.522642 0
    endloop
  endfacet
  facet normal -0.996917 0.0784584 0
    outer loop
      vertex 2.56799 -0.406729 0
      vertex 2.6 0 3.9
      vertex 2.6 0 0
    endloop
  endfacet
  facet normal 0 0 -1
    outer loop
      vertex 2.56799 -0.406729 0
      vertex 4.97261 -0.522642 0
      vertex 4.89074 -1.03956 0
    endloop
  endfacet
  facet normal 0 0 1
    outer loop
      vertex 2.56799 -0.406729 3.9
      vertex 4.89074 -1.03956 3.9
      vertex 4.97261 -0.522642 3.9
    endloop
  endfacet
  facet normal -0 0 1
    outer loop
      vertex 2.56799 -0.406729 3.9
      vertex 4.97261 -0.522642 3.9
      vertex 2.6 0 3.9
    endloop
  endfacet
  facet normal -0.996917 -0.0784584 0
    outer loop
      vertex 2.56799 0.406729 0
      vertex 2.6 0 0
      vertex 2.56799 0.406729 3.9
    endloop
  endfacet
  facet normal -0 0 -1
    outer loop
      vertex 2.56799 0.406729 0
      vertex 4.89074 1.03956 0
      vertex 4.97261 0.522642 0
    endloop
  endfacet
  facet normal 0 0 -1
    outer loop
      vertex 2.56799 0.406729 0
      vertex 4.97261 0.522642 0
      vertex 2.6 0 0
    endloop
  endfacet
  facet normal -0.996917 -0.0784584 0
    outer loop
      vertex 2.56799 0.406729 3.9
      vertex 2.6 0 0
      vertex 2.6 0 3.9
    endloop
  endfacet
  facet normal 0 0 1
    outer loop
      vertex 2.56799 0.406729 3.9
      vertex 2.6 0 3.9
      vertex 4.97261 0.522642 3.9
    endloop
  endfacet
  facet normal 0 0 1
    outer loop
      vertex 2.56799 0.406729 3.9
      vertex 4.97261 0.522642 3.9
      vertex 4.89074 1.03956 3.9
    endloop
  endfacet
  facet normal 0 0 -1
    outer loop
      vertex 2.6 0 0
      vertex 4.97261 0.522642 0
      vertex 5 0 0
    endloop
  endfacet
  facet normal 0 0 -1
    outer loop
      vertex 2.6 0 0
      vertex 5 0 0
      vertex 4.97261 -0.522642 0
    endloop
  endfacet
  facet normal 0 0 1
    outer loop
      vertex 2.6 0 3.9
      vertex 4.97261 -0.522642 3.9
      vertex 5 0 3.9
    endloop
  endfacet
  facet normal 0 0 1
    outer loop
      vertex 2.6 0 3.9
      vertex 5 0 3.9
      vertex 4.97261 0.522642 3.9
    endloop
  endfacet
  facet normal 0.629326 -0.777142 0
    outer loop
      vertex 2.93893 -4.04508 0
      vertex 3.34565 -3.71572 0
      vertex 3.34565 -3.71572 3.9
    endloop
  endfacet
  facet normal 0.629326 -0.777142 0
    outer loop
      vertex 2.93893 -4.04508 0
      vertex 3.34565 -3.71572 3.9
      vertex 2.93893 -4.04508 3.9
    endloop
  endfacet
  facet normal 0.629326 0.777142 0
    outer loop
      vertex 2.93893 4.04508 0
      vertex 2.93893 4.04508 3.9
      vertex 3.34565 3.71572 0
    endloop
  endfacet
  facet normal 0.629326 0.777142 -0
    outer loop
      vertex 2.93893 4.04508 3.9
      vertex 3.34565 3.71572 3.9
      vertex 3.34565 3.71572 0
    endloop
  endfacet
  facet normal 0.707107 -0.707107 0
    outer loop
      vertex 3.34565 -3.71572 0
      vertex 3.71572 -3.34565 0
      vertex 3.34565 -3.71572 3.9
    endloop
  endfacet
  facet normal 0.707107 -0.707107 0
    outer loop
      vertex 3.34565 -3.71572 3.9
      vertex 3.71572 -3.34565 0
      vertex 3.71572 -3.34565 3.9
    endloop
  endfacet
  facet normal 0.707107 0.707107 0
    outer loop
      vertex 3.34565 3.71572 0
      vertex 3.34565 3.71572 3.9
      vertex 3.71572 3.34565 3.9
    endloop
  endfacet
  facet normal 0.707107 0.707107 0
    outer loop
      vertex 3.34565 3.71572 0
      vertex 3.71572 3.34565 3.9
      vertex 3.71572 3.34565 0
    endloop
  endfacet
  facet normal 0.777142 -0.629326 0
    outer loop
      vertex 3.71572 -3.34565 0
      vertex 4.04508 -2.93893 0
      vertex 3.71572 -3.34565 3.9
    endloop
  endfacet
  facet normal 0.777142 -0.629326 0
    outer loop
      vertex 3.71572 -3.34565 3.9
      vertex 4.04508 -2.93893 0
      vertex 4.04508 -2.93893 3.9
    endloop
  endfacet
  facet normal 0.777142 0.629326 0
    outer loop
      vertex 3.71572 3.34565 0
      vertex 3.71572 3.34565 3.9
      vertex 4.04508 2.93893 3.9
    endloop
  endfacet
  facet normal 0.777142 0.629326 0
    outer loop
      vertex 3.71572 3.34565 0
      vertex 4.04508 2.93893 3.9
      vertex 4.04508 2.93893 0
    endloop
  endfacet
  facet normal 0.838666 -0.544646 0
    outer loop
      vertex 4.04508 -2.93893 0
      vertex 4.33013 -2.5 0
      vertex 4.04508 -2.93893 3.9
    endloop
  endfacet
  facet normal 0.838666 -0.544646 0
    outer loop
      vertex 4.04508 -2.93893 3.9
      vertex 4.33013 -2.5 0
      vertex 4.33013 -2.5 3.9
    endloop
  endfacet
  facet normal 0.838666 0.544646 0
    outer loop
      vertex 4.04508 2.93893 0
      vertex 4.04508 2.93893 3.9
      vertex 4.33013 2.5 3.9
    endloop
  endfacet
  facet normal 0.838666 0.544646 0
    outer loop
      vertex 4.04508 2.93893 0
      vertex 4.33013 2.5 3.9
      vertex 4.33013 2.5 0
    endloop
  endfacet
  facet normal 0.891008 -0.453988 0
    outer loop
      vertex 4.33013 -2.5 0
      vertex 4.56773 -2.03368 0
      vertex 4.33013 -2.5 3.9
    endloop
  endfacet
  facet normal 0.891008 -0.453988 0
    outer loop
      vertex 4.33013 -2.5 3.9
      vertex 4.56773 -2.03368 0
      vertex 4.56773 -2.03368 3.9
    endloop
  endfacet
  facet normal 0.891008 0.453988 0
    outer loop
      vertex 4.33013 2.5 0
      vertex 4.33013 2.5 3.9
      vertex 4.56773 2.03368 3.9
    endloop
  endfacet
  facet normal 0.891008 0.453988 0
    outer loop
      vertex 4.33013 2.5 0
      vertex 4.56773 2.03368 3.9
      vertex 4.56773 2.03368 0
    endloop
  endfacet
  facet normal 0.933584 -0.358358 0
    outer loop
      vertex 4.56773 -2.03368 0
      vertex 4.75528 -1.54508 0
      vertex 4.56773 -2.03368 3.9
    endloop
  endfacet
  facet normal 0.933584 -0.358358 0
    outer loop
      vertex 4.56773 -2.03368 3.9
      vertex 4.75528 -1.54508 0
      vertex 4.75528 -1.54508 3.9
    endloop
  endfacet
  facet normal 0.933584 0.358358 0
    outer loop
      vertex 4.56773 2.03368 0
      vertex 4.56773 2.03368 3.9
      vertex 4.75528 1.54508 3.9
    endloop
  endfacet
  facet normal 0.933584 0.358358 0
    outer loop
      vertex 4.56773 2.03368 0
      vertex 4.75528 1.54508 3.9
      vertex 4.75528 1.54508 0
    endloop
  endfacet
  facet normal 0.965923 -0.25883 0
    outer loop
      vertex 4.75528 -1.54508 0
      vertex 4.89074 -1.03956 0
      vertex 4.75528 -1.54508 3.9
    endloop
  endfacet
  facet normal 0.965923 -0.25883 0
    outer loop
      vertex 4.75528 -1.54508 3.9
      vertex 4.89074 -1.03956 0
      vertex 4.89074 -1.03956 3.9
    endloop
  endfacet
  facet normal 0.965923 0.25883 0
    outer loop
      vertex 4.75528 1.54508 0
      vertex 4.75528 1.54508 3.9
      vertex 4.89074 1.03956 3.9
    endloop
  endfacet
  facet normal 0.965923 0.25883 0
    outer loop
      vertex 4.75528 1.54508 0
      vertex 4.89074 1.03956 3.9
      vertex 4.89074 1.03956 0
    endloop
  endfacet
  facet normal 0.987689 -0.156431 0
    outer loop
      vertex 4.89074 -1.03956 0
      vertex 4.97261 -0.522642 0
      vertex 4.89074 -1.03956 3.9
    endloop
  endfacet
  facet normal 0.987689 -0.156431 0
    outer loop
      vertex 4.89074 -1.03956 3.9
      vertex 4.97261 -0.522642 0
      vertex 4.97261 -0.522642 3.9
    endloop
  endfacet
  facet normal 0.987689 0.156431 0
    outer loop
      vertex 4.89074 1.03956 0
      vertex 4.89074 1.03956 3.9
      vertex 4.97261 0.522642 3.9
    endloop
  endfacet
  facet normal 0.987689 0.156431 0
    outer loop
      vertex 4.89074 1.03956 0
      vertex 4.97261 0.522642 3.9
      vertex 4.97261 0.522642 0
    endloop
  endfacet
  facet normal 0.99863 -0.052335 0
    outer loop
      vertex 4.97261 -0.522642 0
      vertex 5 0 0
      vertex 4.97261 -0.522642 3.9
    endloop
  endfacet
  facet normal 0.99863 -0.052335 0
    outer loop
      vertex 4.97261 -0.522642 3.9
      vertex 5 0 0
      vertex 5 0 3.9
    endloop
  endfacet
  facet normal 0.99863 0.052335 0
    outer loop
      vertex 4.97261 0.522642 0
      vertex 4.97261 0.522642 3.9
      vertex 5 0 3.9
    endloop
  endfacet
  facet normal 0.99863 0.052335 0
    outer loop
      vertex 4.97261 0.522642 0
      vertex 5 0 3.9
      vertex 5 0 0
    endloop
  endfacet
endsolid model
