solid model
  facet normal -0 0.707107 0.707107
    outer loop
      vertex -11 8 13.5
      vertex -8.5 6.5 15
      vertex -9.875 8 13.5
    endloop
  endfacet
  facet normal 0 1 -0
    outer loop
      vertex -11 8 13.5
      vertex -9.875 8 13.5
      vertex -9.875 8 3
    endloop
  endfacet
  facet normal 0 1 0
    outer loop
      vertex -11 8 3
      vertex -11 8 13.5
      vertex -9.875 8 3
    endloop
  endfacet
  facet normal 1 0 0
    outer loop
      vertex -11 8 3
      vertex -11 9.5 12
      vertex -11 8 13.5
    endloop
  endfacet
  facet normal 1 0 0
    outer loop
      vertex -11 8 3
      vertex -11 9.5 3
      vertex -11 9.5 12
    endloop
  endfacet
  facet normal 0 0 1
    outer loop
      vertex -11 8 3
      vertex -9.875 8 3
      vertex -11 9.5 3
    endloop
  endfacet
  facet normal 0 0 1
    outer loop
      vertex -11 9.5 3
      vertex -9.875 8 3
      vertex -9.875 9.5 3
    endloop
  endfacet
  facet normal 0 0 1
    outer loop
      vertex -11 9.5 3
      vertex -9.875 9.5 3
      vertex -8.5 10.05 3
    endloop
  endfacet
  facet normal 0 0.707107 0.707107
    outer loop
      vertex -12.375 8 13.5
      vertex -11 8 13.5
      vertex -11 9.5 12
    endloop
  endfacet
  facet normal 0 0.707107 0.707107
    outer loop
      vertex -12.375 8 13.5
      vertex -11 9.5 12
      vertex -12.375 9.5 12
    endloop
  endfacet
  facet normal -0 0.707107 0.707107
    outer loop
      vertex -12.375 8 13.5
      vertex -8.5 6.5 15
      vertex -11 8 13.5
    endloop
  endfacet
  facet normal -1 -0 0
    outer loop
      vertex -12.375 8 3
      vertex -12.375 8 13.5
      vertex -12.375 9.5 12
    endloop
  endfacet
  facet normal -1 0 0
    outer loop
      vertex -12.375 8 3
      vertex -12.375 9.5 12
      vertex -12.375 9.5 3
    endloop
  endfacet
  facet normal 0 1 -0
    outer loop
      vertex -12.375 9.5 12
      vertex -11 9.5 12
      vertex -11 9.5 3
    endloop
  endfacet
  facet normal 0 0 1
    outer loop
      vertex -12.375 9.5 3
      vertex -11 9.5 3
      vertex -8.5 10.05 3
    endloop
  endfacet
  facet normal 0 1 0
    outer loop
      vertex -12.375 9.5 3
      vertex -12.375 9.5 12
      vertex -11 9.5 3
    endloop
  endfacet
  facet normal 0 1 -0
    outer loop
      vertex -13.5 8 13.5
      vertex -12.375 8 13.5
      vertex -12.375 8 3
    endloop
  endfacet
  facet normal -0 0.707107 0.707107
    outer loop
      vertex -13.5 8 13.5
      vertex -8.5 6.5 15
      vertex -12.375 8 13.5
    endloop
  endfacet
  facet normal 0 0 1
    outer loop
      vertex -13.5 8 3
      vertex -12.375 8 3
      vertex -13.5 9.5 3
    endloop
  endfacet
  facet normal 0 1 0
    outer loop
      vertex -13.5 8 3
      vertex -13.5 8 13.5
      vertex -12.375 8 3
    endloop
  endfacet
  facet normal 1 0 0
    outer loop
      vertex -13.5 8 3
      vertex -13.5 9.5 12
      vertex -13.5 8 13.5
    endloop
  endfacet
  facet normal 1 0 0
    outer loop
      vertex -13.5 8 3
      vertex -13.5 9.5 3
      vertex -13.5 9.5 12
    endloop
  endfacet
  facet normal 0 0 1
    outer loop
      vertex -13.5 9.5 3
      vertex -12.375 8 3
      vertex -12.375 9.5 3
    endloop
  endfacet
  facet normal 0 0 1
    outer loop
      vertex -13.5 9.5 3
      vertex -12.375 9.5 3
      vertex -8.5 10.05 3
    endloop
  endfacet
  facet normal 0 0.707107 0.707107
    outer loop
      vertex -14.875 8 13.5
      vertex -13.5 8 13.5
      vertex -13.5 9.5 12
    endloop
  endfacet
  facet normal 0 0.707107 0.707107
    outer loop
      vertex -14.875 8 13.5
      vertex -13.5 9.5 12
      vertex -14.875 9.5 12
    endloop
  endfacet
  facet normal -0 0.707107 0.707107
    outer loop
      vertex -14.875 8 13.5
      vertex -8.5 6.5 15
      vertex -13.5 8 13.5
    endloop
  endfacet
  facet normal -1 -0 0
    outer loop
      vertex -14.875 8 3
      vertex -14.875 8 13.5
      vertex -14.875 9.5 12
    endloop
  endfacet
  facet normal -1 0 0
    outer loop
      vertex -14.875 8 3
      vertex -14.875 9.5 12
      vertex -14.875 9.5 3
    endloop
  endfacet
  facet normal 0 1 -0
    outer loop
      vertex -14.875 9.5 12
      vertex -13.5 9.5 12
      vertex -13.5 9.5 3
    endloop
  endfacet
  facet normal 0 0 1
    outer loop
      vertex -14.875 9.5 3
      vertex -13.5 9.5 3
      vertex -8.5 10.05 3
    endloop
  endfacet
  facet normal 0 1 0
    outer loop
      vertex -14.875 9.5 3
      vertex -14.875 9.5 12
      vertex -13.5 9.5 3
    endloop
  endfacet
  facet normal 0 1 -0
    outer loop
      vertex -16 8 13.5
      vertex -14.875 8 13.5
      vertex -14.875 8 3
    endloop
  endfacet
  facet normal -0 0.707107 0.707107
    outer loop
      vertex -16 8 13.5
      vertex -8.5 6.5 15
      vertex -14.875 8 13.5
    endloop
  endfacet
  facet normal 0 0 1
    outer loop
      vertex -16 8 3
      vertex -14.875 8 3
      vertex -16 9.5 3
    endloop
  endfacet
  facet normal 0 1 0
    outer loop
      vertex -16 8 3
      vertex -16 8 13.5
      vertex -14.875 8 3
    endloop
  endfacet
  facet normal 1 0 0
    outer loop
      vertex -16 8 3
      vertex -16 9.5 12
      vertex -16 8 13.5
    endloop
  endfacet
  facet normal 1 0 0
    outer loop
      vertex -16 8 3
      vertex -16 9.5 3
      vertex -16 9.5 12
    endloop
  endfacet
  facet normal 0 0 1
    outer loop
      vertex -16 9.5 3
      vertex -14.875 8 3
      vertex -14.875 9.5 3
    endloop
  endfacet
  facet normal 0 0 1
    outer loop
      vertex -16 9.5 3
      vertex -14.875 9.5 3
      vertex -8.5 10.05 3
    endloop
  endfacet
  facet normal 0 0.707107 0.707107
    outer loop
      vertex -17.375 8 13.5
      vertex -16 8 13.5
      vertex -16 9.5 12
    endloop
  endfacet
  facet normal 0 0.707107 0.707107
    outer loop
      vertex -17.375 8 13.5
      vertex -16 9.5 12
      vertex -17.375 9.5 12
    endloop
  endfacet
  facet normal -1 -0 0
    outer loop
      vertex -17.375 8 3
      vertex -17.375 8 13.5
      vertex -17.375 9.5 12
    endloop
  endfacet
  facet normal -1 0 0
    outer loop
      vertex -17.375 8 3
      vertex -17.375 9.5 12
      vertex -17.375 9.5 3
    endloop
  endfacet
  facet normal 0 1 -0
    outer loop
      vertex -17.375 9.5 12
      vertex -16 9.5 12
      vertex -16 9.5 3
    endloop
  endfacet
  facet normal 0 0 1
    outer loop
      vertex -17.375 9.5 3
      vertex -16 9.5 3
      vertex -8.5 10.05 3
    endloop
  endfacet
  facet normal 0 1 0
    outer loop
      vertex -17.375 9.5 3
      vertex -17.375 9.5 12
      vertex -16 9.5 3
    endloop
  endfacet
  facet normal -1 -0 0
    outer loop
      vertex -18.5 17 -1
      vertex -18.5 17 15
      vertex -18.5 30 15
    endloop
  endfacet
  facet normal 0 0 -1
    outer loop
      vertex -18.5 17 -1
      vertex -18.5 30 -1
      vertex -8.5 32 -1
    endloop
  endfacet
  facet normal -1 0 0
    outer loop
      vertex -18.5 17 -1
      vertex -18.5 30 15
      vertex -18.5 30 -1
    endloop
  endfacet
  facet normal 0 0 -1
    outer loop
      vertex -18.5 17 -1
      vertex -8.5 32 -1
      vertex -8.5 0 -1
    endloop
  endfacet
  facet normal 0 0 1
    outer loop
      vertex -18.5 17 15
      vertex -8.5 12.5 15
      vertex -8.5 32 15
    endloop
  endfacet
  facet normal 0 0 1
    outer loop
      vertex -18.5 17 15
      vertex -8.5 32 15
      vertex -18.5 30 15
    endloop
  endfacet
  facet normal 0 0 -1
    outer loop
      vertex -18.5 30 -1
      vertex 0 36 -1
      vertex -8.5 32 -1
    endloop
  endfacet
  facet normal 0 0 1
    outer loop
      vertex -18.5 30 15
      vertex -8.5 32 15
      vertex 0 36 15
    endloop
  endfacet
  facet normal 0 1 -0
    outer loop
      vertex -18.5 8 13.5
      vertex -17.375 8 13.5
      vertex -17.375 8 3
    endloop
  endfacet
  facet normal 0 0 1
    outer loop
      vertex -18.5 8 3
      vertex -17.375 8 3
      vertex -18.5 9.5 3
    endloop
  endfacet
  facet normal 0 1 0
    outer loop
      vertex -18.5 8 3
      vertex -18.5 8 13.5
      vertex -17.375 8 3
    endloop
  endfacet
  facet normal 1 0 0
    outer loop
      vertex -18.5 8 3
      vertex -18.5 9.5 12
      vertex -18.5 8 13.5
    endloop
  endfacet
  facet normal 1 0 0
    outer loop
      vertex -18.5 8 3
      vertex -18.5 9.5 3
      vertex -18.5 9.5 12
    endloop
  endfacet
  facet normal 0 0 1
    outer loop
      vertex -18.5 9.5 3
      vertex -17.375 8 3
      vertex -17.375 9.5 3
    endloop
  endfacet
  facet normal 0 0 1
    outer loop
      vertex -18.5 9.5 3
      vertex -17.375 9.5 3
      vertex -8.5 10.05 3
    endloop
  endfacet
  facet normal 0 0.707107 0.707107
    outer loop
      vertex -19.875 8 13.5
      vertex -18.5 8 13.5
      vertex -18.5 9.5 12
    endloop
  endfacet
  facet normal 0 0.707107 0.707107
    outer loop
      vertex -19.875 8 13.5
      vertex -18.5 9.5 12
      vertex -19.875 9.5 12
    endloop
  endfacet
  facet normal -1 -0 0
    outer loop
      vertex -19.875 8 3
      vertex -19.875 8 13.5
      vertex -19.875 9.5 12
    endloop
  endfacet
  facet normal -1 0 0
    outer loop
      vertex -19.875 8 3
      vertex -19.875 9.5 12
      vertex -19.875 9.5 3
    endloop
  endfacet
  facet normal 0 1 -0
    outer loop
      vertex -19.875 9.5 12
      vertex -18.5 9.5 12
      vertex -18.5 9.5 3
    endloop
  endfacet
  facet normal 0 0 1
    outer loop
      vertex -19.875 9.5 3
      vertex -18.5 9.5 3
      vertex -8.5 10.05 3
    endloop
  endfacet
  facet normal 0 1 0
    outer loop
      vertex -19.875 9.5 3
      vertex -19.875 9.5 12
      vertex -18.5 9.5 3
    endloop
  endfacet
  facet normal 0 -1 0
    outer loop
      vertex -2.8 32 7.5
      vertex 0 32 -1
      vertex 0 32 15
    endloop
  endfacet
  facet normal 0 1 -0
    outer loop
      vertex -2.8 36 7.5
      vertex 0 36 15
      vertex 0 36 -1
    endloop
  endfacet
  facet normal 0 1 -0
    outer loop
      vertex -21 8 13.5
      vertex -19.875 8 13.5
      vertex -19.875 8 3
    endloop
  endfacet
  facet normal 0 0 1
    outer loop
      vertex -21 8 3
      vertex -19.875 8 3
      vertex -21 9.5 3
    endloop
  endfacet
  facet normal 0 1 0
    outer loop
      vertex -21 8 3
      vertex -21 8 13.5
      vertex -19.875 8 3
    endloop
  endfacet
  facet normal 1 0 0
    outer loop
      vertex -21 8 3
      vertex -21 9.5 12
      vertex -21 8 13.5
    endloop
  endfacet
  facet normal 1 0 0
    outer loop
      vertex -21 8 3
      vertex -21 9.5 3
      vertex -21 9.5 12
    endloop
  endfacet
  facet normal 0 0 1
    outer loop
      vertex -21 9.5 3
      vertex -19.875 8 3
      vertex -19.875 9.5 3
    endloop
  endfacet
  facet normal 0 0 1
    outer loop
      vertex -21 9.5 3
      vertex -19.875 9.5 3
      vertex -8.5 10.05 3
    endloop
  endfacet
  facet normal 0 0.707107 0.707107
    outer loop
      vertex -22.375 8 13.5
      vertex -21 8 13.5
      vertex -21 9.5 12
    endloop
  endfacet
  facet normal 0 0.707107 0.707107
    outer loop
      vertex -22.375 8 13.5
      vertex -21 9.5 12
      vertex -22.375 9.5 12
    endloop
  endfacet
  facet normal -1 -0 0
    outer loop
      vertex -22.375 8 3
      vertex -22.375 8 13.5
      vertex -22.375 9.5 12
    endloop
  endfacet
  facet normal -1 0 0
    outer loop
      vertex -22.375 8 3
      vertex -22.375 9.5 12
      vertex -22.375 9.5 3
    endloop
  endfacet
  facet normal 0 1 -0
    outer loop
      vertex -22.375 9.5 12
      vertex -21 9.5 12
      vertex -21 9.5 3
    endloop
  endfacet
  facet normal 0 0 1
    outer loop
      vertex -22.375 9.5 3
      vertex -21 9.5 3
      vertex -8.5 10.05 3
    endloop
  endfacet
  facet normal 0 1 0
    outer loop
      vertex -22.375 9.5 3
      vertex -22.375 9.5 12
      vertex -21 9.5 3
    endloop
  endfacet
  facet normal -1 0 0
    outer loop
      vertex -23.5 0 15
      vertex -23.5 6.5 15
      vertex -23.5 8 13.5
    endloop
  endfacet
  facet normal 0 0 1
    outer loop
      vertex -23.5 0 15
      vertex -8.5 0 15
      vertex -23.5 6.5 15
    endloop
  endfacet
  facet normal -1 0 0
    outer loop
      vertex -23.5 0 3
      vertex -23.5 0 15
      vertex -23.5 8 13.5
    endloop
  endfacet
  facet normal -1 0 0
    outer loop
      vertex -23.5 0 3
      vertex -23.5 8 13.5
      vertex -23.5 8 3
    endloop
  endfacet
  facet normal 0 -1 0
    outer loop
      vertex -23.5 0 3
      vertex -8.5 0 -1
      vertex -8.5 0 15
    endloop
  endfacet
  facet normal 0 -1 0
    outer loop
      vertex -23.5 0 3
      vertex -8.5 0 15
      vertex -23.5 0 15
    endloop
  endfacet
  facet normal -0 0.707107 0.707107
    outer loop
      vertex -23.5 6.5 15
      vertex -16 8 13.5
      vertex -17.375 8 13.5
    endloop
  endfacet
  facet normal -0 0.707107 0.707107
    outer loop
      vertex -23.5 6.5 15
      vertex -17.375 8 13.5
      vertex -18.5 8 13.5
    endloop
  endfacet
  facet normal -0 0.707107 0.707107
    outer loop
      vertex -23.5 6.5 15
      vertex -18.5 8 13.5
      vertex -19.875 8 13.5
    endloop
  endfacet
  facet normal -0 0.707107 0.707107
    outer loop
      vertex -23.5 6.5 15
      vertex -19.875 8 13.5
      vertex -21 8 13.5
    endloop
  endfacet
  facet normal -0 0.707107 0.707107
    outer loop
      vertex -23.5 6.5 15
      vertex -21 8 13.5
      vertex -22.375 8 13.5
    endloop
  endfacet
  facet normal 0 0.707107 0.707107
    outer loop
      vertex -23.5 6.5 15
      vertex -22.375 8 13.5
      vertex -23.5 8 13.5
    endloop
  endfacet
  facet normal -0 0 1
    outer loop
      vertex -23.5 6.5 15
      vertex -8.5 0 15
      vertex -8.5 6.5 15
    endloop
  endfacet
  facet normal 0 0.707107 0.707107
    outer loop
      vertex -23.5 6.5 15
      vertex -8.5 6.5 15
      vertex -16 8 13.5
    endloop
  endfacet
  facet normal 0 1 -0
    outer loop
      vertex -23.5 8 13.5
      vertex -22.375 8 13.5
      vertex -22.375 8 3
    endloop
  endfacet
  facet normal 0 0 1
    outer loop
      vertex -23.5 8 3
      vertex -22.375 8 3
      vertex -22.375 9.5 3
    endloop
  endfacet
  facet normal 0 1 0
    outer loop
      vertex -23.5 8 3
      vertex -23.5 8 13.5
      vertex -22.375 8 3
    endloop
  endfacet
  facet normal 1 -0 0
    outer loop
      vertex -26.5 0 15
      vertex -26.5 8 13.5
      vertex -26.5 6.5 15
    endloop
  endfacet
  facet normal 0 0 1
    outer loop
      vertex -26.5 0 3
      vertex -23.5 0 3
      vertex -26.5 8 3
    endloop
  endfacet
  facet normal 1 0 0
    outer loop
      vertex -26.5 0 3
      vertex -26.5 8 13.5
      vertex -26.5 0 15
    endloop
  endfacet
  facet normal 1 0 0
    outer loop
      vertex -26.5 0 3
      vertex -26.5 8 3
      vertex -26.5 8 13.5
    endloop
  endfacet
  facet normal 0 0 1
    outer loop
      vertex -26.5 8 3
      vertex -23.5 0 3
      vertex -23.5 8 3
    endloop
  endfacet
  facet normal 0 0 1
    outer loop
      vertex -26.5 8 3
      vertex -23.5 8 3
      vertex -22.375 9.5 3
    endloop
  endfacet
  facet normal -0 0.707107 0.707107
    outer loop
      vertex -27.625 8 13.5
      vertex -26.5 6.5 15
      vertex -26.5 8 13.5
    endloop
  endfacet
  facet normal 0 1 -0
    outer loop
      vertex -27.625 8 13.5
      vertex -26.5 8 13.5
      vertex -26.5 8 3
    endloop
  endfacet
  facet normal 0 0 1
    outer loop
      vertex -27.625 8 3
      vertex -26.5 8 3
      vertex -27.625 9.5 3
    endloop
  endfacet
  facet normal 0 1 0
    outer loop
      vertex -27.625 8 3
      vertex -27.625 8 13.5
      vertex -26.5 8 3
    endloop
  endfacet
  facet normal 1 0 0
    outer loop
      vertex -27.625 8 3
      vertex -27.625 9.5 12
      vertex -27.625 8 13.5
    endloop
  endfacet
  facet normal 1 0 0
    outer loop
      vertex -27.625 8 3
      vertex -27.625 9.5 3
      vertex -27.625 9.5 12
    endloop
  endfacet
  facet normal 0 0 1
    outer loop
      vertex -27.625 9.5 3
      vertex -22.375 9.5 3
      vertex -8.5 10.05 3
    endloop
  endfacet
  facet normal 0 0 1
    outer loop
      vertex -27.625 9.5 3
      vertex -26.5 8 3
      vertex -22.375 9.5 3
    endloop
  endfacet
  facet normal -0 0.707107 0.707107
    outer loop
      vertex -29 8 13.5
      vertex -26.5 6.5 15
      vertex -27.625 8 13.5
    endloop
  endfacet
  facet normal 0 0.707107 0.707107
    outer loop
      vertex -29 8 13.5
      vertex -27.625 8 13.5
      vertex -27.625 9.5 12
    endloop
  endfacet
  facet normal 0 0.707107 0.707107
    outer loop
      vertex -29 8 13.5
      vertex -27.625 9.5 12
      vertex -29 9.5 12
    endloop
  endfacet
  facet normal -1 -0 0
    outer loop
      vertex -29 8 3
      vertex -29 8 13.5
      vertex -29 9.5 12
    endloop
  endfacet
  facet normal -1 0 0
    outer loop
      vertex -29 8 3
      vertex -29 9.5 12
      vertex -29 9.5 3
    endloop
  endfacet
  facet normal 0 1 -0
    outer loop
      vertex -29 9.5 12
      vertex -27.625 9.5 12
      vertex -27.625 9.5 3
    endloop
  endfacet
  facet normal 0 1 0
    outer loop
      vertex -29 9.5 3
      vertex -29 9.5 12
      vertex -27.625 9.5 3
    endloop
  endfacet
  facet normal -0.951057 0 0.309015
    outer loop
      vertex -3.12467 32 6.50076
      vertex -2.8 32 7.5
      vertex -2.8 36 7.5
    endloop
  endfacet
  facet normal -0.951057 0 0.309015
    outer loop
      vertex -3.12467 32 6.50076
      vertex -2.8 36 7.5
      vertex -3.12467 36 6.50076
    endloop
  endfacet
  facet normal 0 -1 0
    outer loop
      vertex -3.12467 32 6.50076
      vertex 0 32 -1
      vertex -2.8 32 7.5
    endloop
  endfacet
  facet normal 0 -1 0
    outer loop
      vertex -3.12467 32 8.49923
      vertex -2.8 32 7.5
      vertex 0 32 15
    endloop
  endfacet
  facet normal -0.951056 -0 -0.309017
    outer loop
      vertex -3.12467 32 8.49923
      vertex -3.12467 36 8.49923
      vertex -2.8 32 7.5
    endloop
  endfacet
  facet normal 0 1 0
    outer loop
      vertex -3.12467 36 6.50076
      vertex -2.8 36 7.5
      vertex 0 36 -1
    endloop
  endfacet
  facet normal -0.951056 0 -0.309017
    outer loop
      vertex -3.12467 36 8.49923
      vertex -2.8 36 7.5
      vertex -2.8 32 7.5
    endloop
  endfacet
  facet normal 0 1 0
    outer loop
      vertex -3.12467 36 8.49923
      vertex 0 36 15
      vertex -2.8 36 7.5
    endloop
  endfacet
  facet normal -0.587785 0 0.809018
    outer loop
      vertex -3.97467 32 5.8832
      vertex -3.12467 32 6.50076
      vertex -3.97467 36 5.8832
    endloop
  endfacet
  facet normal 0 -1 0
    outer loop
      vertex -3.97467 32 5.8832
      vertex 0 32 -1
      vertex -3.12467 32 6.50076
    endloop
  endfacet
  facet normal 0 -1 0
    outer loop
      vertex -3.97467 32 9.1168
      vertex -3.12467 32 8.49923
      vertex 0 32 15
    endloop
  endfacet
  facet normal -0.587791 0 -0.809013
    outer loop
      vertex -3.97467 32 9.1168
      vertex -3.12467 36 8.49923
      vertex -3.12467 32 8.49923
    endloop
  endfacet
  facet normal -0.587791 0 -0.809013
    outer loop
      vertex -3.97467 32 9.1168
      vertex -3.97467 36 9.1168
      vertex -3.12467 36 8.49923
    endloop
  endfacet
  facet normal -0.587785 0 0.809018
    outer loop
      vertex -3.97467 36 5.8832
      vertex -3.12467 32 6.50076
      vertex -3.12467 36 6.50076
    endloop
  endfacet
  facet normal 0 1 0
    outer loop
      vertex -3.97467 36 5.8832
      vertex -3.12467 36 6.50076
      vertex 0 36 -1
    endloop
  endfacet
  facet normal 0 1 0
    outer loop
      vertex -3.97467 36 9.1168
      vertex 0 36 15
      vertex -3.12467 36 8.49923
    endloop
  endfacet
  facet normal -0 0.707107 0.707107
    outer loop
      vertex -30.125 8 13.5
      vertex -26.5 6.5 15
      vertex -29 8 13.5
    endloop
  endfacet
  facet normal 0 1 -0
    outer loop
      vertex -30.125 8 13.5
      vertex -29 8 13.5
      vertex -29 8 3
    endloop
  endfacet
  facet normal 0 0 1
    outer loop
      vertex -30.125 8 3
      vertex -29 8 3
      vertex -30.125 9.5 3
    endloop
  endfacet
  facet normal 0 1 0
    outer loop
      vertex -30.125 8 3
      vertex -30.125 8 13.5
      vertex -29 8 3
    endloop
  endfacet
  facet normal 1 0 0
    outer loop
      vertex -30.125 8 3
      vertex -30.125 9.5 12
      vertex -30.125 8 13.5
    endloop
  endfacet
  facet normal 1 0 0
    outer loop
      vertex -30.125 8 3
      vertex -30.125 9.5 3
      vertex -30.125 9.5 12
    endloop
  endfacet
  facet normal 0 0 1
    outer loop
      vertex -30.125 9.5 3
      vertex -29 8 3
      vertex -29 9.5 3
    endloop
  endfacet
  facet normal 0 0 -1
    outer loop
      vertex -31.5 17 -1
      vertex -18.5 17 -1
      vertex -8.5 0 -1
    endloop
  endfacet
  facet normal 0 1 0
    outer loop
      vertex -31.5 17 -1
      vertex -31.5 17 15
      vertex -18.5 17 -1
    endloop
  endfacet
  facet normal 1 0 0
    outer loop
      vertex -31.5 17 -1
      vertex -31.5 30 -1
      vertex -31.5 17 15
    endloop
  endfacet
  facet normal 0 1 -0
    outer loop
      vertex -31.5 17 15
      vertex -18.5 17 15
      vertex -18.5 17 -1
    endloop
  endfacet
  facet normal 1 -0 0
    outer loop
      vertex -31.5 17 15
      vertex -31.5 30 -1
      vertex -31.5 30 15
    endloop
  endfacet
  facet normal -0 0 1
    outer loop
      vertex -31.5 17 15
      vertex -8.5 12.5 15
      vertex -18.5 17 15
    endloop
  endfacet
  facet normal 0 -1 -0
    outer loop
      vertex -31.5 30 -1
      vertex -18.5 30 -1
      vertex -18.5 30 15
    endloop
  endfacet
  facet normal 0 -1 0
    outer loop
      vertex -31.5 30 -1
      vertex -18.5 30 15
      vertex -31.5 30 15
    endloop
  endfacet
  facet normal 0 0 -1
    outer loop
      vertex -31.5 30 -1
      vertex 0 36 -1
      vertex -18.5 30 -1
    endloop
  endfacet
  facet normal 0 0 1
    outer loop
      vertex -31.5 30 15
      vertex -18.5 30 15
      vertex 0 36 15
    endloop
  endfacet
  facet normal -0 0.707107 0.707107
    outer loop
      vertex -31.5 8 13.5
      vertex -26.5 6.5 15
      vertex -30.125 8 13.5
    endloop
  endfacet
  facet normal 0 0.707107 0.707107
    outer loop
      vertex -31.5 8 13.5
      vertex -30.125 8 13.5
      vertex -30.125 9.5 12
    endloop
  endfacet
  facet normal 0 0.707107 0.707107
    outer loop
      vertex -31.5 8 13.5
      vertex -30.125 9.5 12
      vertex -31.5 9.5 12
    endloop
  endfacet
  facet normal -1 -0 0
    outer loop
      vertex -31.5 8 3
      vertex -31.5 8 13.5
      vertex -31.5 9.5 12
    endloop
  endfacet
  facet normal -1 0 0
    outer loop
      vertex -31.5 8 3
      vertex -31.5 9.5 12
      vertex -31.5 9.5 3
    endloop
  endfacet
  facet normal 0 1 -0
    outer loop
      vertex -31.5 9.5 12
      vertex -30.125 9.5 12
      vertex -30.125 9.5 3
    endloop
  endfacet
  facet normal 0 1 0
    outer loop
      vertex -31.5 9.5 3
      vertex -31.5 9.5 12
      vertex -30.125 9.5 3
    endloop
  endfacet
  facet normal -0 0.707107 0.707107
    outer loop
      vertex -32.625 8 13.5
      vertex -26.5 6.5 15
      vertex -31.5 8 13.5
    endloop
  endfacet
  facet normal 0 1 -0
    outer loop
      vertex -32.625 8 13.5
      vertex -31.5 8 13.5
      vertex -31.5 8 3
    endloop
  endfacet
  facet normal 0 0 1
    outer loop
      vertex -32.625 8 3
      vertex -31.5 8 3
      vertex -32.625 9.5 3
    endloop
  endfacet
  facet normal 0 1 0
    outer loop
      vertex -32.625 8 3
      vertex -32.625 8 13.5
      vertex -31.5 8 3
    endloop
  endfacet
  facet normal 1 0 0
    outer loop
      vertex -32.625 8 3
      vertex -32.625 9.5 12
      vertex -32.625 8 13.5
    endloop
  endfacet
  facet normal 1 0 0
    outer loop
      vertex -32.625 8 3
      vertex -32.625 9.5 3
      vertex -32.625 9.5 12
    endloop
  endfacet
  facet normal 0 0 1
    outer loop
      vertex -32.625 9.5 3
      vertex -31.5 8 3
      vertex -31.5 9.5 3
    endloop
  endfacet
  facet normal -0 0.707107 0.707107
    outer loop
      vertex -34 8 13.5
      vertex -26.5 6.5 15
      vertex -32.625 8 13.5
    endloop
  endfacet
  facet normal 0 0.707107 0.707107
    outer loop
      vertex -34 8 13.5
      vertex -32.625 8 13.5
      vertex -32.625 9.5 12
    endloop
  endfacet
  facet normal 0 0.707107 0.707107
    outer loop
      vertex -34 8 13.5
      vertex -32.625 9.5 12
      vertex -34 9.5 12
    endloop
  endfacet
  facet normal -1 -0 0
    outer loop
      vertex -34 8 3
      vertex -34 8 13.5
      vertex -34 9.5 12
    endloop
  endfacet
  facet normal -1 0 0
    outer loop
      vertex -34 8 3
      vertex -34 9.5 12
      vertex -34 9.5 3
    endloop
  endfacet
  facet normal 0 1 -0
    outer loop
      vertex -34 9.5 12
      vertex -32.625 9.5 12
      vertex -32.625 9.5 3
    endloop
  endfacet
  facet normal 0 1 0
    outer loop
      vertex -34 9.5 3
      vertex -34 9.5 12
      vertex -32.625 9.5 3
    endloop
  endfacet
  facet normal 0 1 -0
    outer loop
      vertex -35.125 8 13.5
      vertex -34 8 13.5
      vertex -34 8 3
    endloop
  endfacet
  facet normal 0 0 1
    outer loop
      vertex -35.125 8 3
      vertex -34 8 3
      vertex -35.125 9.5 3
    endloop
  endfacet
  facet normal 0 1 0
    outer loop
      vertex -35.125 8 3
      vertex -35.125 8 13.5
      vertex -34 8 3
    endloop
  endfacet
  facet normal 1 0 0
    outer loop
      vertex -35.125 8 3
      vertex -35.125 9.5 12
      vertex -35.125 8 13.5
    endloop
  endfacet
  facet normal 1 0 0
    outer loop
      vertex -35.125 8 3
      vertex -35.125 9.5 3
      vertex -35.125 9.5 12
    endloop
  endfacet
  facet normal 0 0 1
    outer loop
      vertex -35.125 9.5 3
      vertex -34 8 3
      vertex -34 9.5 3
    endloop
  endfacet
  facet normal 0 0.707107 0.707107
    outer loop
      vertex -36.5 8 13.5
      vertex -35.125 8 13.5
      vertex -35.125 9.5 12
    endloop
  endfacet
  facet normal 0 0.707107 0.707107
    outer loop
      vertex -36.5 8 13.5
      vertex -35.125 9.5 12
      vertex -36.5 9.5 12
    endloop
  endfacet
  facet normal -1 -0 0
    outer loop
      vertex -36.5 8 3
      vertex -36.5 8 13.5
      vertex -36.5 9.5 12
    endloop
  endfacet
  facet normal -1 0 0
    outer loop
      vertex -36.5 8 3
      vertex -36.5 9.5 12
      vertex -36.5 9.5 3
    endloop
  endfacet
  facet normal 0 1 -0
    outer loop
      vertex -36.5 9.5 12
      vertex -35.125 9.5 12
      vertex -35.125 9.5 3
    endloop
  endfacet
  facet normal 0 1 0
    outer loop
      vertex -36.5 9.5 3
      vertex -36.5 9.5 12
      vertex -35.125 9.5 3
    endloop
  endfacet
  facet normal 0 1 -0
    outer loop
      vertex -37.625 8 13.5
      vertex -36.5 8 13.5
      vertex -36.5 8 3
    endloop
  endfacet
  facet normal 0 0 1
    outer loop
      vertex -37.625 8 3
      vertex -36.5 8 3
      vertex -37.625 9.5 3
    endloop
  endfacet
  facet normal 0 1 0
    outer loop
      vertex -37.625 8 3
      vertex -37.625 8 13.5
      vertex -36.5 8 3
    endloop
  endfacet
  facet normal 1 0 0
    outer loop
      vertex -37.625 8 3
      vertex -37.625 9.5 12
      vertex -37.625 8 13.5
    endloop
  endfacet
  facet normal 1 0 0
    outer loop
      vertex -37.625 8 3
      vertex -37.625 9.5 3
      vertex -37.625 9.5 12
    endloop
  endfacet
  facet normal 0 0 1
    outer loop
      vertex -37.625 9.5 3
      vertex -36.5 8 3
      vertex -36.5 9.5 3
    endloop
  endfacet
  facet normal 0 0.707107 0.707107
    outer loop
      vertex -39 8 13.5
      vertex -37.625 8 13.5
      vertex -37.625 9.5 12
    endloop
  endfacet
  facet normal 0 0.707107 0.707107
    outer loop
      vertex -39 8 13.5
      vertex -37.625 9.5 12
      vertex -39 9.5 12
    endloop
  endfacet
  facet normal -1 -0 0
    outer loop
      vertex -39 8 3
      vertex -39 8 13.5
      vertex -39 9.5 12
    endloop
  endfacet
  facet normal -1 0 0
    outer loop
      vertex -39 8 3
      vertex -39 9.5 12
      vertex -39 9.5 3
    endloop
  endfacet
  facet normal 0 1 -0
    outer loop
      vertex -39 9.5 12
      vertex -37.625 9.5 12
      vertex -37.625 9.5 3
    endloop
  endfacet
  facet normal 0 1 0
    outer loop
      vertex -39 9.5 3
      vertex -39 9.5 12
      vertex -37.625 9.5 3
    endloop
  endfacet
  facet normal 0 1 -0
    outer loop
      vertex -40.125 8 13.5
      vertex -39 8 13.5
      vertex -39 8 3
    endloop
  endfacet
  facet normal 0 0 1
    outer loop
      vertex -40.125 8 3
      vertex -39 8 3
      vertex -40.125 9.5 3
    endloop
  endfacet
  facet normal 0 1 0
    outer loop
      vertex -40.125 8 3
      vertex -40.125 8 13.5
      vertex -39 8 3
    endloop
  endfacet
  facet normal 1 0 0
    outer loop
      vertex -40.125 8 3
      vertex -40.125 9.5 12
      vertex -40.125 8 13.5
    endloop
  endfacet
  facet normal 1 0 0
    outer loop
      vertex -40.125 8 3
      vertex -40.125 9.5 3
      vertex -40.125 9.5 12
    endloop
  endfacet
  facet normal 0 0 1
    outer loop
      vertex -40.125 9.5 3
      vertex -39 8 3
      vertex -39 9.5 3
    endloop
  endfacet
  facet normal 0 -1 -0
    outer loop
      vertex -41.5 0 -1
      vertex -23.5 0 3
      vertex -26.5 0 3
    endloop
  endfacet
  facet normal 0 -1 0
    outer loop
      vertex -41.5 0 -1
      vertex -26.5 0 3
      vertex -41.5 0 15
    endloop
  endfacet
  facet normal 0 0 -1
    outer loop
      vertex -41.5 0 -1
      vertex -31.5 17 -1
      vertex -8.5 0 -1
    endloop
  endfacet
  facet normal -1 0 0
    outer loop
      vertex -41.5 0 -1
      vertex -41.5 0 15
      vertex -41.5 8 3
    endloop
  endfacet
  facet normal -1 0 0
    outer loop
      vertex -41.5 0 -1
      vertex -41.5 10.05 3
      vertex -41.5 32 -1
    endloop
  endfacet
  facet normal 0 0 -1
    outer loop
      vertex -41.5 0 -1
      vertex -41.5 32 -1
      vertex -31.5 17 -1
    endloop
  endfacet
  facet normal -1 -0 0
    outer loop
      vertex -41.5 0 -1
      vertex -41.5 8 3
      vertex -41.5 9.5 3
    endloop
  endfacet
  facet normal -1 -0 0
    outer loop
      vertex -41.5 0 -1
      vertex -41.5 9.5 3
      vertex -41.5 10.05 3
    endloop
  endfacet
  facet normal 0 -1 0
    outer loop
      vertex -41.5 0 -1
      vertex -8.5 0 -1
      vertex -23.5 0 3
    endloop
  endfacet
  facet normal 0 0 1
    outer loop
      vertex -41.5 0 15
      vertex -26.5 0 15
      vertex -41.5 6.5 15
    endloop
  endfacet
  facet normal 0 -1 0
    outer loop
      vertex -41.5 0 15
      vertex -26.5 0 3
      vertex -26.5 0 15
    endloop
  endfacet
  facet normal -1 0 0
    outer loop
      vertex -41.5 0 15
      vertex -41.5 6.5 15
      vertex -41.5 8 13.5
    endloop
  endfacet
  facet normal -1 0 0
    outer loop
      vertex -41.5 0 15
      vertex -41.5 8 13.5
      vertex -41.5 8 3
    endloop
  endfacet
  facet normal 0 -0.707107 0.707107
    outer loop
      vertex -41.5 10.05 12.55
      vertex -8.5 10.05 12.55
      vertex -8.5 12.5 15
    endloop
  endfacet
  facet normal 0 -0.707107 0.707107
    outer loop
      vertex -41.5 10.05 12.55
      vertex -8.5 12.5 15
      vertex -41.5 12.5 15
    endloop
  endfacet
  facet normal -0 0 1
    outer loop
      vertex -41.5 10.05 3
      vertex -27.625 9.5 3
      vertex -8.5 10.05 3
    endloop
  endfacet
  facet normal 0 0 1
    outer loop
      vertex -41.5 10.05 3
      vertex -29 9.5 3
      vertex -27.625 9.5 3
    endloop
  endfacet
  facet normal 0 0 1
    outer loop
      vertex -41.5 10.05 3
      vertex -30.125 9.5 3
      vertex -29 9.5 3
    endloop
  endfacet
  facet normal 0 0 1
    outer loop
      vertex -41.5 10.05 3
      vertex -31.5 9.5 3
      vertex -30.125 9.5 3
    endloop
  endfacet
  facet normal 0 0 1
    outer loop
      vertex -41.5 10.05 3
      vertex -32.625 9.5 3
      vertex -31.5 9.5 3
    endloop
  endfacet
  facet normal 0 0 1
    outer loop
      vertex -41.5 10.05 3
      vertex -34 9.5 3
      vertex -32.625 9.5 3
    endloop
  endfacet
  facet normal 0 0 1
    outer loop
      vertex -41.5 10.05 3
      vertex -35.125 9.5 3
      vertex -34 9.5 3
    endloop
  endfacet
  facet normal 0 0 1
    outer loop
      vertex -41.5 10.05 3
      vertex -36.5 9.5 3
      vertex -35.125 9.5 3
    endloop
  endfacet
  facet normal 0 0 1
    outer loop
      vertex -41.5 10.05 3
      vertex -37.625 9.5 3
      vertex -36.5 9.5 3
    endloop
  endfacet
  facet normal 0 0 1
    outer loop
      vertex -41.5 10.05 3
      vertex -39 9.5 3
      vertex -37.625 9.5 3
    endloop
  endfacet
  facet normal 0 0 1
    outer loop
      vertex -41.5 10.05 3
      vertex -40.125 9.5 3
      vertex -39 9.5 3
    endloop
  endfacet
  facet normal -1 0 0
    outer loop
      vertex -41.5 10.05 3
      vertex -41.5 10.05 12.55
      vertex -41.5 12.5 15
    endloop
  endfacet
  facet normal -1 0 0
    outer loop
      vertex -41.5 10.05 3
      vertex -41.5 12.5 15
      vertex -41.5 32 -1
    endloop
  endfacet
  facet normal 0 -1 0
    outer loop
      vertex -41.5 10.05 3
      vertex -8.5 10.05 12.55
      vertex -41.5 10.05 12.55
    endloop
  endfacet
  facet normal 0 -1 -0
    outer loop
      vertex -41.5 10.05 3
      vertex -8.5 10.05 3
      vertex -8.5 10.05 12.55
    endloop
  endfacet
  facet normal 0 0 1
    outer loop
      vertex -41.5 12.5 15
      vertex -31.5 17 15
      vertex -41.5 32 15
    endloop
  endfacet
  facet normal -1 0 0
    outer loop
      vertex -41.5 12.5 15
      vertex -41.5 32 15
      vertex -41.5 32 -1
    endloop
  endfacet
  facet normal 0 0 1
    outer loop
      vertex -41.5 12.5 15
      vertex -8.5 12.5 15
      vertex -31.5 17 15
    endloop
  endfacet
  facet normal 0 0 -1
    outer loop
      vertex -41.5 32 -1
      vertex -31.5 30 -1
      vertex -31.5 17 -1
    endloop
  endfacet
  facet normal 0 0 1
    outer loop
      vertex -41.5 32 15
      vertex -31.5 17 15
      vertex -31.5 30 15
    endloop
  endfacet
  facet normal -0 0 1
    outer loop
      vertex -41.5 6.5 15
      vertex -26.5 0 15
      vertex -26.5 6.5 15
    endloop
  endfacet
  facet normal 0 0.707107 0.707107
    outer loop
      vertex -41.5 6.5 15
      vertex -26.5 6.5 15
      vertex -34 8 13.5
    endloop
  endfacet
  facet normal -0 0.707107 0.707107
    outer loop
      vertex -41.5 6.5 15
      vertex -34 8 13.5
      vertex -35.125 8 13.5
    endloop
  endfacet
  facet normal -0 0.707107 0.707107
    outer loop
      vertex -41.5 6.5 15
      vertex -35.125 8 13.5
      vertex -36.5 8 13.5
    endloop
  endfacet
  facet normal -0 0.707107 0.707107
    outer loop
      vertex -41.5 6.5 15
      vertex -36.5 8 13.5
      vertex -37.625 8 13.5
    endloop
  endfacet
  facet normal -0 0.707107 0.707107
    outer loop
      vertex -41.5 6.5 15
      vertex -37.625 8 13.5
      vertex -39 8 13.5
    endloop
  endfacet
  facet normal -0 0.707107 0.707107
    outer loop
      vertex -41.5 6.5 15
      vertex -39 8 13.5
      vertex -40.125 8 13.5
    endloop
  endfacet
  facet normal 0 0.707107 0.707107
    outer loop
      vertex -41.5 6.5 15
      vertex -40.125 8 13.5
      vertex -41.5 8 13.5
    endloop
  endfacet
  facet normal 0 0.707107 0.707107
    outer loop
      vertex -41.5 8 13.5
      vertex -40.125 8 13.5
      vertex -40.125 9.5 12
    endloop
  endfacet
  facet normal 0 0.707107 0.707107
    outer loop
      vertex -41.5 8 13.5
      vertex -40.125 9.5 12
      vertex -41.5 9.5 12
    endloop
  endfacet
  facet normal -1 -0 0
    outer loop
      vertex -41.5 8 3
      vertex -41.5 8 13.5
      vertex -41.5 9.5 12
    endloop
  endfacet
  facet normal -1 0 0
    outer loop
      vertex -41.5 8 3
      vertex -41.5 9.5 12
      vertex -41.5 9.5 3
    endloop
  endfacet
  facet normal 0 1 -0
    outer loop
      vertex -41.5 9.5 12
      vertex -40.125 9.5 12
      vertex -40.125 9.5 3
    endloop
  endfacet
  facet normal 0 0 1
    outer loop
      vertex -41.5 9.5 3
      vertex -40.125 9.5 3
      vertex -41.5 10.05 3
    endloop
  endfacet
  facet normal 0 1 0
    outer loop
      vertex -41.5 9.5 3
      vertex -41.5 9.5 12
      vertex -40.125 9.5 3
    endloop
  endfacet
  facet normal 0 -1 0
    outer loop
      vertex -43.8 32 7.5
      vertex -41.5 32 -1
      vertex -41.5 32 15
    endloop
  endfacet
  facet normal 0 1 0
    outer loop
      vertex -43.8 36 7.5
      vertex -6.2 36 7.5
      vertex -5.87533 36 6.50076
    endloop
  endfacet
  facet normal 0 -1 0
    outer loop
      vertex -44.1247 32 6.50076
      vertex -41.5 32 -1
      vertex -43.8 32 7.5
    endloop
  endfacet
  facet normal -0.951049 0 0.30904
    outer loop
      vertex -44.1247 32 6.50076
      vertex -43.8 32 7.5
      vertex -43.8 36 7.5
    endloop
  endfacet
  facet normal -0.951049 0 0.30904
    outer loop
      vertex -44.1247 32 6.50076
      vertex -43.8 36 7.5
      vertex -44.1247 36 6.50076
    endloop
  endfacet
  facet normal 0 -1 0
    outer loop
      vertex -44.1247 32 8.49923
      vertex -43.8 32 7.5
      vertex -41.5 32 15
    endloop
  endfacet
  facet normal -0.951048 -0 -0.309043
    outer loop
      vertex -44.1247 32 8.49923
      vertex -44.1247 36 8.49923
      vertex -43.8 32 7.5
    endloop
  endfacet
  facet normal 0 1 0
    outer loop
      vertex -44.1247 36 6.50076
      vertex -43.8 36 7.5
      vertex -5.87533 36 6.50076
    endloop
  endfacet
  facet normal 0 1 0
    outer loop
      vertex -44.1247 36 6.50076
      vertex -5.87533 36 6.50076
      vertex 0 36 -1
    endloop
  endfacet
  facet normal -0.951048 0 -0.309043
    outer loop
      vertex -44.1247 36 8.49923
      vertex -43.8 36 7.5
      vertex -43.8 32 7.5
    endloop
  endfacet
  facet normal 0 1 -0
    outer loop
      vertex -44.1247 36 8.49923
      vertex -5.87533 36 8.49923
      vertex -6.2 36 7.5
    endloop
  endfacet
  facet normal 0 1 0
    outer loop
      vertex -44.1247 36 8.49923
      vertex -6.2 36 7.5
      vertex -43.8 36 7.5
    endloop
  endfacet
  facet normal 0 -1 0
    outer loop
      vertex -44.9747 32 5.8832
      vertex -41.5 32 -1
      vertex -44.1247 32 6.50076
    endloop
  endfacet
  facet normal -0.587785 0 0.809018
    outer loop
      vertex -44.9747 32 5.8832
      vertex -44.1247 32 6.50076
      vertex -44.9747 36 5.8832
    endloop
  endfacet
  facet normal 0 -1 0
    outer loop
      vertex -44.9747 32 9.1168
      vertex -44.1247 32 8.49923
      vertex -41.5 32 15
    endloop
  endfacet
  facet normal -0.587791 0 -0.809013
    outer loop
      vertex -44.9747 32 9.1168
      vertex -44.1247 36 8.49923
      vertex -44.1247 32 8.49923
    endloop
  endfacet
  facet normal -0.587791 0 -0.809013
    outer loop
      vertex -44.9747 32 9.1168
      vertex -44.9747 36 9.1168
      vertex -44.1247 36 8.49923
    endloop
  endfacet
  facet normal -0.587785 0 0.809018
    outer loop
      vertex -44.9747 36 5.8832
      vertex -44.1247 32 6.50076
      vertex -44.1247 36 6.50076
    endloop
  endfacet
  facet normal 0 -1 0
    outer loop
      vertex -46.0253 32 5.8832
      vertex -41.5 32 -1
      vertex -44.9747 32 5.8832
    endloop
  endfacet
  facet normal 0 0 1
    outer loop
      vertex -46.0253 32 5.8832
      vertex -44.9747 32 5.8832
      vertex -46.0253 36 5.8832
    endloop
  endfacet
  facet normal 0 -1 0
    outer loop
      vertex -46.0253 32 9.1168
      vertex -44.9747 32 9.1168
      vertex -41.5 32 15
    endloop
  endfacet
  facet normal 0 0 -1
    outer loop
      vertex -46.0253 32 9.1168
      vertex -44.9747 36 9.1168
      vertex -44.9747 32 9.1168
    endloop
  endfacet
  facet normal -0 0 -1
    outer loop
      vertex -46.0253 32 9.1168
      vertex -46.0253 36 9.1168
      vertex -44.9747 36 9.1168
    endloop
  endfacet
  facet normal -0 0 1
    outer loop
      vertex -46.0253 36 5.8832
      vertex -44.9747 32 5.8832
      vertex -44.9747 36 5.8832
    endloop
  endfacet
  facet normal 0.587785 0 0.809018
    outer loop
      vertex -46.8753 32 6.50076
      vertex -46.0253 32 5.8832
      vertex -46.8753 36 6.50076
    endloop
  endfacet
  facet normal 0.587791 0 -0.809013
    outer loop
      vertex -46.8753 32 8.49923
      vertex -46.0253 36 9.1168
      vertex -46.0253 32 9.1168
    endloop
  endfacet
  facet normal 0.587791 0 -0.809013
    outer loop
      vertex -46.8753 32 8.49923
      vertex -46.8753 36 8.49923
      vertex -46.0253 36 9.1168
    endloop
  endfacet
  facet normal 0.587785 0 0.809018
    outer loop
      vertex -46.8753 36 6.50076
      vertex -46.0253 32 5.8832
      vertex -46.0253 36 5.8832
    endloop
  endfacet
  facet normal 0.951049 0 0.30904
    outer loop
      vertex -47.2 32 7.5
      vertex -46.8753 32 6.50076
      vertex -46.8753 36 6.50076
    endloop
  endfacet
  facet normal 0.951049 -0 0.30904
    outer loop
      vertex -47.2 32 7.5
      vertex -46.8753 36 6.50076
      vertex -47.2 36 7.5
    endloop
  endfacet
  facet normal 0.951048 0 -0.309043
    outer loop
      vertex -47.2 32 7.5
      vertex -47.2 36 7.5
      vertex -46.8753 32 8.49923
    endloop
  endfacet
  facet normal 0.951048 0 -0.309043
    outer loop
      vertex -47.2 36 7.5
      vertex -46.8753 36 8.49923
      vertex -46.8753 32 8.49923
    endloop
  endfacet
  facet normal 0 0 1
    outer loop
      vertex -5.02533 32 5.8832
      vertex -3.97467 32 5.8832
      vertex -5.02533 36 5.8832
    endloop
  endfacet
  facet normal 0 0 -1
    outer loop
      vertex -5.02533 32 9.1168
      vertex -3.97467 36 9.1168
      vertex -3.97467 32 9.1168
    endloop
  endfacet
  facet normal -0 0 -1
    outer loop
      vertex -5.02533 32 9.1168
      vertex -5.02533 36 9.1168
      vertex -3.97467 36 9.1168
    endloop
  endfacet
  facet normal -0 0 1
    outer loop
      vertex -5.02533 36 5.8832
      vertex -3.97467 32 5.8832
      vertex -3.97467 36 5.8832
    endloop
  endfacet
  facet normal 0 1 0
    outer loop
      vertex -5.02533 36 5.8832
      vertex -3.97467 36 5.8832
      vertex 0 36 -1
    endloop
  endfacet
  facet normal 0 1 0
    outer loop
      vertex -5.02533 36 9.1168
      vertex 0 36 15
      vertex -3.97467 36 9.1168
    endloop
  endfacet
  facet normal 0.587785 0 0.809018
    outer loop
      vertex -5.87533 32 6.50076
      vertex -5.02533 32 5.8832
      vertex -5.87533 36 6.50076
    endloop
  endfacet
  facet normal 0.587791 0 -0.809013
    outer loop
      vertex -5.87533 32 8.49923
      vertex -5.02533 36 9.1168
      vertex -5.02533 32 9.1168
    endloop
  endfacet
  facet normal 0.587791 0 -0.809013
    outer loop
      vertex -5.87533 32 8.49923
      vertex -5.87533 36 8.49923
      vertex -5.02533 36 9.1168
    endloop
  endfacet
  facet normal 0.587785 0 0.809018
    outer loop
      vertex -5.87533 36 6.50076
      vertex -5.02533 32 5.8832
      vertex -5.02533 36 5.8832
    endloop
  endfacet
  facet normal 0 1 0
    outer loop
      vertex -5.87533 36 6.50076
      vertex -5.02533 36 5.8832
      vertex 0 36 -1
    endloop
  endfacet
  facet normal 0 1 0
    outer loop
      vertex -5.87533 36 8.49923
      vertex 0 36 15
      vertex -5.02533 36 9.1168
    endloop
  endfacet
  facet normal 0 -1 0
    outer loop
      vertex -50 32 -1
      vertex -41.5 32 -1
      vertex -46.0253 32 5.8832
    endloop
  endfacet
  facet normal 0 -1 -0
    outer loop
      vertex -50 32 -1
      vertex -46.0253 32 5.8832
      vertex -46.8753 32 6.50076
    endloop
  endfacet
  facet normal 0 -1 -0
    outer loop
      vertex -50 32 -1
      vertex -46.8753 32 6.50076
      vertex -47.2 32 7.5
    endloop
  endfacet
  facet normal 0 -1 0
    outer loop
      vertex -50 32 -1
      vertex -47.2 32 7.5
      vertex -50 32 15
    endloop
  endfacet
  facet normal -1 -0 0
    outer loop
      vertex -50 32 -1
      vertex -50 32 15
      vertex -50 36 15
    endloop
  endfacet
  facet normal 0 0 -1
    outer loop
      vertex -50 32 -1
      vertex -50 36 -1
      vertex -41.5 32 -1
    endloop
  endfacet
  facet normal -1 0 0
    outer loop
      vertex -50 32 -1
      vertex -50 36 15
      vertex -50 36 -1
    endloop
  endfacet
  facet normal 0 0 1
    outer loop
      vertex -50 32 15
      vertex -41.5 32 15
      vertex -50 36 15
    endloop
  endfacet
  facet normal 0 -1 0
    outer loop
      vertex -50 32 15
      vertex -46.0253 32 9.1168
      vertex -41.5 32 15
    endloop
  endfacet
  facet normal 0 -1 0
    outer loop
      vertex -50 32 15
      vertex -46.8753 32 8.49923
      vertex -46.0253 32 9.1168
    endloop
  endfacet
  facet normal 0 -1 0
    outer loop
      vertex -50 32 15
      vertex -47.2 32 7.5
      vertex -46.8753 32 8.49923
    endloop
  endfacet
  facet normal 0 0 -1
    outer loop
      vertex -50 36 -1
      vertex -31.5 30 -1
      vertex -41.5 32 -1
    endloop
  endfacet
  facet normal 0 1 0
    outer loop
      vertex -50 36 -1
      vertex -44.1247 36 6.50076
      vertex 0 36 -1
    endloop
  endfacet
  facet normal 0 1 0
    outer loop
      vertex -50 36 -1
      vertex -44.9747 36 5.8832
      vertex -44.1247 36 6.50076
    endloop
  endfacet
  facet normal 0 1 0
    outer loop
      vertex -50 36 -1
      vertex -46.0253 36 5.8832
      vertex -44.9747 36 5.8832
    endloop
  endfacet
  facet normal 0 1 0
    outer loop
      vertex -50 36 -1
      vertex -46.8753 36 6.50076
      vertex -46.0253 36 5.8832
    endloop
  endfacet
  facet normal 0 1 0
    outer loop
      vertex -50 36 -1
      vertex -47.2 36 7.5
      vertex -46.8753 36 6.50076
    endloop
  endfacet
  facet normal 0 1 0
    outer loop
      vertex -50 36 -1
      vertex -50 36 15
      vertex -47.2 36 7.5
    endloop
  endfacet
  facet normal 0 0 -1
    outer loop
      vertex -50 36 -1
      vertex 0 36 -1
      vertex -31.5 30 -1
    endloop
  endfacet
  facet normal -0 0 1
    outer loop
      vertex -50 36 15
      vertex -31.5 30 15
      vertex 0 36 15
    endloop
  endfacet
  facet normal 0 0 1
    outer loop
      vertex -50 36 15
      vertex -41.5 32 15
      vertex -31.5 30 15
    endloop
  endfacet
  facet normal 0 1 0
    outer loop
      vertex -50 36 15
      vertex -44.1247 36 8.49923
      vertex -44.9747 36 9.1168
    endloop
  endfacet
  facet normal 0 1 -0
    outer loop
      vertex -50 36 15
      vertex -44.9747 36 9.1168
      vertex -46.0253 36 9.1168
    endloop
  endfacet
  facet normal 0 1 -0
    outer loop
      vertex -50 36 15
      vertex -46.0253 36 9.1168
      vertex -46.8753 36 8.49923
    endloop
  endfacet
  facet normal 0 1 -0
    outer loop
      vertex -50 36 15
      vertex -46.8753 36 8.49923
      vertex -47.2 36 7.5
    endloop
  endfacet
  facet normal 0 1 -0
    outer loop
      vertex -50 36 15
      vertex -5.87533 36 8.49923
      vertex -44.1247 36 8.49923
    endloop
  endfacet
  facet normal 0 1 0
    outer loop
      vertex -50 36 15
      vertex 0 36 15
      vertex -5.87533 36 8.49923
    endloop
  endfacet
  facet normal 0.951057 0 0.309015
    outer loop
      vertex -6.2 32 7.5
      vertex -5.87533 32 6.50076
      vertex -5.87533 36 6.50076
    endloop
  endfacet
  facet normal 0.951057 -0 0.309015
    outer loop
      vertex -6.2 32 7.5
      vertex -5.87533 36 6.50076
      vertex -6.2 36 7.5
    endloop
  endfacet
  facet normal 0.951056 0 -0.309017
    outer loop
      vertex -6.2 32 7.5
      vertex -6.2 36 7.5
      vertex -5.87533 32 8.49923
    endloop
  endfacet
  facet normal 0.951056 0 -0.309017
    outer loop
      vertex -6.2 36 7.5
      vertex -5.87533 36 8.49923
      vertex -5.87533 32 8.49923
    endloop
  endfacet
  facet normal 1 0 0
    outer loop
      vertex -8.5 0 -1
      vertex -8.5 10.05 3
      vertex -8.5 9.5 3
    endloop
  endfacet
  facet normal 1 0 0
    outer loop
      vertex -8.5 0 -1
      vertex -8.5 32 -1
      vertex -8.5 10.05 3
    endloop
  endfacet
  facet normal 1 0 0
    outer loop
      vertex -8.5 0 -1
      vertex -8.5 8 3
      vertex -8.5 0 15
    endloop
  endfacet
  facet normal 1 0 0
    outer loop
      vertex -8.5 0 -1
      vertex -8.5 9.5 3
      vertex -8.5 8 3
    endloop
  endfacet
  facet normal 1 -0 0
    outer loop
      vertex -8.5 0 15
      vertex -8.5 8 13.5
      vertex -8.5 6.5 15
    endloop
  endfacet
  facet normal 1 0 0
    outer loop
      vertex -8.5 0 15
      vertex -8.5 8 3
      vertex -8.5 8 13.5
    endloop
  endfacet
  facet normal 1 0 0
    outer loop
      vertex -8.5 10.05 3
      vertex -8.5 12.5 15
      vertex -8.5 10.05 12.55
    endloop
  endfacet
  facet normal 1 0 0
    outer loop
      vertex -8.5 10.05 3
      vertex -8.5 32 -1
      vertex -8.5 12.5 15
    endloop
  endfacet
  facet normal 1 -0 0
    outer loop
      vertex -8.5 12.5 15
      vertex -8.5 32 -1
      vertex -8.5 32 15
    endloop
  endfacet
  facet normal 0 -1 -0
    outer loop
      vertex -8.5 32 -1
      vertex -3.97467 32 5.8832
      vertex -5.02533 32 5.8832
    endloop
  endfacet
  facet normal 0 -1 -0
    outer loop
      vertex -8.5 32 -1
      vertex -5.02533 32 5.8832
      vertex -5.87533 32 6.50076
    endloop
  endfacet
  facet normal 0 -1 -0
    outer loop
      vertex -8.5 32 -1
      vertex -5.87533 32 6.50076
      vertex -6.2 32 7.5
    endloop
  endfacet
  facet normal 0 -1 0
    outer loop
      vertex -8.5 32 -1
      vertex -6.2 32 7.5
      vertex -8.5 32 15
    endloop
  endfacet
  facet normal 0 -1 0
    outer loop
      vertex -8.5 32 -1
      vertex 0 32 -1
      vertex -3.97467 32 5.8832
    endloop
  endfacet
  facet normal 0 0 -1
    outer loop
      vertex -8.5 32 -1
      vertex 0 36 -1
      vertex 0 32 -1
    endloop
  endfacet
  facet normal 0 -1 0
    outer loop
      vertex -8.5 32 15
      vertex -3.97467 32 9.1168
      vertex 0 32 15
    endloop
  endfacet
  facet normal 0 -1 0
    outer loop
      vertex -8.5 32 15
      vertex -5.02533 32 9.1168
      vertex -3.97467 32 9.1168
    endloop
  endfacet
  facet normal 0 -1 0
    outer loop
      vertex -8.5 32 15
      vertex -5.87533 32 8.49923
      vertex -5.02533 32 9.1168
    endloop
  endfacet
  facet normal 0 -1 0
    outer loop
      vertex -8.5 32 15
      vertex -6.2 32 7.5
      vertex -5.87533 32 8.49923
    endloop
  endfacet
  facet normal 0 0 1
    outer loop
      vertex -8.5 32 15
      vertex 0 32 15
      vertex 0 36 15
    endloop
  endfacet
  facet normal 1 0 0
    outer loop
      vertex -8.5 8 3
      vertex -8.5 9.5 12
      vertex -8.5 8 13.5
    endloop
  endfacet
  facet normal 1 0 0
    outer loop
      vertex -8.5 8 3
      vertex -8.5 9.5 3
      vertex -8.5 9.5 12
    endloop
  endfacet
  facet normal -0 0.707107 0.707107
    outer loop
      vertex -9.875 8 13.5
      vertex -8.5 6.5 15
      vertex -8.5 8 13.5
    endloop
  endfacet
  facet normal 0 0.707107 0.707107
    outer loop
      vertex -9.875 8 13.5
      vertex -8.5 8 13.5
      vertex -8.5 9.5 12
    endloop
  endfacet
  facet normal 0 0.707107 0.707107
    outer loop
      vertex -9.875 8 13.5
      vertex -8.5 9.5 12
      vertex -9.875 9.5 12
    endloop
  endfacet
  facet normal -1 -0 0
    outer loop
      vertex -9.875 8 3
      vertex -9.875 8 13.5
      vertex -9.875 9.5 12
    endloop
  endfacet
  facet normal -1 0 0
    outer loop
      vertex -9.875 8 3
      vertex -9.875 9.5 12
      vertex -9.875 9.5 3
    endloop
  endfacet
  facet normal 0 1 -0
    outer loop
      vertex -9.875 9.5 12
      vertex -8.5 9.5 12
      vertex -8.5 9.5 3
    endloop
  endfacet
  facet normal 0 0 1
    outer loop
      vertex -9.875 9.5 3
      vertex -8.5 9.5 3
      vertex -8.5 10.05 3
    endloop
  endfacet
  facet normal 0 1 0
    outer loop
      vertex -9.875 9.5 3
      vertex -9.875 9.5 12
      vertex -8.5 9.5 3
    endloop
  endfacet
  facet normal 1 0 0
    outer loop
      vertex 0 32 -1
      vertex 0 36 -1
      vertex 0 32 15
    endloop
  endfacet
  facet normal 1 -0 0
    outer loop
      vertex 0 32 15
      vertex 0 36 -1
      vertex 0 36 15
    endloop
  endfacet
endsolid model
